<?xml version="1.0" encoding="utf-8"?>
<!-- Generator: Adobe Illustrator 24.3.0, SVG Export Plug-In . SVG Version: 6.00 Build 0)  -->
<svg version="1.1" id="Layer_1" xmlns="http://www.w3.org/2000/svg" xmlns:xlink="http://www.w3.org/1999/xlink" x="0px" y="0px"
	 viewBox="0 0 654.55 477.87" style="enable-background:new 0 0 654.55 477.87;" xml:space="preserve">
<style type="text/css">
	.Graphic_x0020_Style_x0020_2{fill:url(#SVGID_1_);}
	.Graphic_x0020_Style_x0020_4{fill:url(#SVGID_2_);}
	.st0{clip-path:url(#SVGID_4_);}
	.st1{fill:#383D47;}
	.st2{fill:#8492A5;}
	.st3{fill:#636E7D;}
	.st4{fill:url(#SVGID_5_);}
	.st5{fill:url(#SVGID_6_);}
	.st6{fill:url(#SVGID_7_);}
	.st7{fill:url(#SVGID_8_);}
	.st8{fill:url(#SVGID_9_);}
	.st9{fill:url(#SVGID_10_);}
	.st10{fill:url(#SVGID_11_);}
	.st11{fill:url(#SVGID_12_);}
	.st12{fill:url(#SVGID_13_);}
	.st13{fill:url(#SVGID_14_);}
	.st14{fill:#71C390;}
	.st15{fill:url(#SVGID_15_);}
	.st16{fill:url(#SVGID_16_);}
	.st17{fill:url(#SVGID_17_);}
	.st18{fill:url(#SVGID_18_);}
	.st19{fill:url(#SVGID_19_);}
	.st20{fill:url(#SVGID_20_);}
	.st21{fill:url(#SVGID_21_);}
	.st22{fill:url(#SVGID_22_);}
	.st23{fill:url(#SVGID_23_);}
	.st24{fill:url(#SVGID_24_);}
	.st25{fill:url(#SVGID_25_);}
	.st26{fill:url(#SVGID_26_);}
	.st27{display:none;}
	.st28{display:inline;}
	.st29{fill:url(#SVGID_27_);}
	.st30{fill:url(#SVGID_28_);}
	.st31{fill:url(#SVGID_29_);}
	.st32{fill:url(#SVGID_30_);}
	.st33{fill:url(#SVGID_31_);}
	.st34{fill:url(#SVGID_32_);}
	.st35{fill:url(#SVGID_33_);}
	.st36{fill:url(#SVGID_34_);}
	.st37{fill:url(#SVGID_35_);}
	.st38{fill:url(#SVGID_36_);}
	.st39{fill:url(#SVGID_37_);}
	.st40{fill:url(#SVGID_38_);}
	.st41{fill:url(#SVGID_39_);}
	.st42{fill:url(#SVGID_40_);}
	.st43{fill:url(#SVGID_41_);}
	.st44{fill:url(#SVGID_42_);}
	.st45{fill:url(#SVGID_43_);}
	.st46{fill:url(#SVGID_44_);}
	.st47{display:inline;fill:#868687;}
</style>
<linearGradient id="SVGID_1_" gradientUnits="userSpaceOnUse" x1="-171.5745" y1="-198.1277" x2="-171.5745" y2="-199.1277">
	<stop  offset="0.1887" style="stop-color:#51E69B"/>
	<stop  offset="0.948" style="stop-color:#26C5F9"/>
</linearGradient>
<linearGradient id="SVGID_2_" gradientUnits="userSpaceOnUse" x1="-171.5745" y1="-198.1277" x2="-171.5745" y2="-199.1277">
	<stop  offset="0.1887" style="stop-color:#636E7D"/>
	<stop  offset="0.948" style="stop-color:#383D47"/>
</linearGradient>
<g>
	<defs>
		<rect id="SVGID_3_" x="3.04" y="1" width="652.85" height="479.49"/>
	</defs>
	<clipPath id="SVGID_4_">
		<use xlink:href="#SVGID_3_"  style="overflow:visible;"/>
	</clipPath>
	<g class="st0">
		<g>
			<g>
				<g>
					<g>
						<polygon class="st1" points="629.22,362.76 629.05,343.91 652.37,334.23 652.37,312.6 608.95,330.56 608.93,330.56 
							608.99,337.6 609.09,352.2 609.12,352.18 609.3,373.73 609.3,392.63 652.73,374.66 652.73,353.03 						"/>
					</g>
					<g>
						<path class="st2" d="M390.49,94.16c27.1-29.39,50.17-42.01,50.17-42.01V2.1c0,0-35.15,15.66-62.5,55.5
							c-39.76,57.92-40.91,125.31-40.91,125.31S353.93,133.82,390.49,94.16z"/>
					</g>
					<g>
						<g>
							<path class="st1" d="M520.47,136.7v214.19c-22.35,3.11-50.73,8.53-78.87,17.95c-17.79,5.95-37.59,15.61-56.2,25.92V242.49
								c0-31.91,17.11-61.24,43.58-74.72c10.2-5.2,20.58-9.9,30.84-13.96C481.23,145.32,502.58,140.01,520.47,136.7 M565.39,86.34
								c0,0-60.02,1.08-122.13,25.7c-12.45,4.94-24.06,10.29-34.67,15.69c-41.66,21.22-68.11,65.84-68.11,114.75v233.65
								c0,0,68.87-49.15,115.38-64.71c53.79-18,109.54-19.74,109.54-19.74V86.34L565.39,86.34z"/>
						</g>
					</g>
					<g>
						<path class="st3" d="M444.86,100.48c-12.57,4.71-25.25,10.14-37.7,16.13c-16.44,7.92-30.89,18.92-42.79,32.11
							c-2.33,2.4-3.42,3.79-3.42,3.79C424.23,42.88,522.97,34.94,522.97,34.94v44.87C500.32,83.64,472.88,89.97,444.86,100.48z"/>
					</g>
					<g>
						<polygon class="st1" points="653.14,68.03 609.71,86 609.71,308.07 653.14,290.1 						"/>
					</g>
				</g>
				<g>
					<g>
						<linearGradient id="SVGID_5_" gradientUnits="userSpaceOnUse" x1="495.1958" y1="476.1489" x2="495.1958" y2="2.0978">
							<stop  offset="0.1887" style="stop-color:#636E7D"/>
							<stop  offset="0.948" style="stop-color:#383D47"/>
						</linearGradient>
						<polygon class="st4" points="629.22,362.76 629.05,343.91 652.37,334.23 652.37,312.6 608.95,330.56 608.93,330.56 
							608.99,337.6 609.09,352.2 609.12,352.18 609.3,373.73 609.3,392.63 652.73,374.66 652.73,353.03 						"/>
						<linearGradient id="SVGID_6_" gradientUnits="userSpaceOnUse" x1="495.1958" y1="476.1489" x2="495.1958" y2="2.0978">
							<stop  offset="0.1887" style="stop-color:#636E7D"/>
							<stop  offset="0.948" style="stop-color:#383D47"/>
						</linearGradient>
						<polygon class="st5" points="629.22,362.76 629.05,343.91 652.37,334.23 652.37,312.6 608.95,330.56 608.93,330.56 
							608.99,337.6 609.09,352.2 609.12,352.18 609.3,373.73 609.3,392.63 652.73,374.66 652.73,353.03 						"/>
					</g>
					<g>
						<linearGradient id="SVGID_7_" gradientUnits="userSpaceOnUse" x1="495.1958" y1="476.1489" x2="495.1958" y2="2.0978">
							<stop  offset="0.1887" style="stop-color:#636E7D"/>
							<stop  offset="0.948" style="stop-color:#383D47"/>
						</linearGradient>
						<path class="st6" d="M390.49,94.16c27.1-29.39,50.17-42.01,50.17-42.01V2.1c0,0-35.15,15.66-62.5,55.5
							c-39.76,57.92-40.91,125.31-40.91,125.31S353.93,133.82,390.49,94.16z"/>
						<linearGradient id="SVGID_8_" gradientUnits="userSpaceOnUse" x1="495.1958" y1="476.1489" x2="495.1958" y2="2.0978">
							<stop  offset="0.1887" style="stop-color:#636E7D"/>
							<stop  offset="0.948" style="stop-color:#383D47"/>
						</linearGradient>
						<path class="st7" d="M390.49,94.16c27.1-29.39,50.17-42.01,50.17-42.01V2.1c0,0-35.15,15.66-62.5,55.5
							c-39.76,57.92-40.91,125.31-40.91,125.31S353.93,133.82,390.49,94.16z"/>
					</g>
					<g>
						<g>
							<linearGradient id="SVGID_9_" gradientUnits="userSpaceOnUse" x1="495.1958" y1="476.1489" x2="495.1958" y2="2.0978">
								<stop  offset="0.1887" style="stop-color:#636E7D"/>
								<stop  offset="0.948" style="stop-color:#383D47"/>
							</linearGradient>
							<path class="st8" d="M520.47,136.7v214.19c-22.35,3.11-50.73,8.53-78.87,17.95c-17.79,5.95-37.59,15.61-56.2,25.92V242.49
								c0-31.91,17.11-61.24,43.58-74.72c10.2-5.2,20.58-9.9,30.84-13.96C481.23,145.32,502.58,140.01,520.47,136.7 M565.39,86.34
								c0,0-60.02,1.08-122.13,25.7c-12.45,4.94-24.06,10.29-34.67,15.69c-41.66,21.22-68.11,65.84-68.11,114.75v233.65
								c0,0,68.87-49.15,115.38-64.71c53.79-18,109.54-19.74,109.54-19.74V86.34L565.39,86.34z"/>
						</g>
						<g>
							<linearGradient id="SVGID_10_" gradientUnits="userSpaceOnUse" x1="495.1958" y1="476.1489" x2="495.1958" y2="2.0978">
								<stop  offset="0.1887" style="stop-color:#636E7D"/>
								<stop  offset="0.948" style="stop-color:#383D47"/>
							</linearGradient>
							<path class="st9" d="M520.47,136.7v214.19c-22.35,3.11-50.73,8.53-78.87,17.95c-17.79,5.95-37.59,15.61-56.2,25.92V242.49
								c0-31.91,17.11-61.24,43.58-74.72c10.2-5.2,20.58-9.9,30.84-13.96C481.23,145.32,502.58,140.01,520.47,136.7 M565.39,86.34
								c0,0-60.02,1.08-122.13,25.7c-12.45,4.94-24.06,10.29-34.67,15.69c-41.66,21.22-68.11,65.84-68.11,114.75v233.65
								c0,0,68.87-49.15,115.38-64.71c53.79-18,109.54-19.74,109.54-19.74V86.34L565.39,86.34z"/>
						</g>
					</g>
					<g>
						<linearGradient id="SVGID_11_" gradientUnits="userSpaceOnUse" x1="495.1958" y1="476.1489" x2="495.1958" y2="2.0978">
							<stop  offset="0.1887" style="stop-color:#636E7D"/>
							<stop  offset="0.948" style="stop-color:#383D47"/>
						</linearGradient>
						<path class="st10" d="M444.86,100.48c-12.57,4.71-25.25,10.14-37.7,16.13c-16.44,7.92-30.89,18.92-42.79,32.11
							c-2.33,2.4-3.42,3.79-3.42,3.79C424.23,42.88,522.97,34.94,522.97,34.94v44.87C500.32,83.64,472.88,89.97,444.86,100.48z"/>
						<linearGradient id="SVGID_12_" gradientUnits="userSpaceOnUse" x1="495.1958" y1="476.1489" x2="495.1958" y2="2.0978">
							<stop  offset="0.1887" style="stop-color:#636E7D"/>
							<stop  offset="0.948" style="stop-color:#383D47"/>
						</linearGradient>
						<path class="st11" d="M444.86,100.48c-12.57,4.71-25.25,10.14-37.7,16.13c-16.44,7.92-30.89,18.92-42.79,32.11
							c-2.33,2.4-3.42,3.79-3.42,3.79C424.23,42.88,522.97,34.94,522.97,34.94v44.87C500.32,83.64,472.88,89.97,444.86,100.48z"/>
					</g>
					<g>
						<linearGradient id="SVGID_13_" gradientUnits="userSpaceOnUse" x1="495.1958" y1="476.1489" x2="495.1958" y2="2.0978">
							<stop  offset="0.1887" style="stop-color:#636E7D"/>
							<stop  offset="0.948" style="stop-color:#383D47"/>
						</linearGradient>
						<polygon class="st12" points="653.14,68.03 609.71,86 609.71,308.07 653.14,290.1 						"/>
						<linearGradient id="SVGID_14_" gradientUnits="userSpaceOnUse" x1="495.1958" y1="476.1489" x2="495.1958" y2="2.0978">
							<stop  offset="0.1887" style="stop-color:#636E7D"/>
							<stop  offset="0.948" style="stop-color:#383D47"/>
						</linearGradient>
						<polygon class="st13" points="653.14,68.03 609.71,86 609.71,308.07 653.14,290.1 						"/>
					</g>
				</g>
			</g>
			<g>
				<g>
					<g>
						<path class="st14" d="M267.37,94.16c-27.1-29.39-50.17-42.01-50.17-42.01V2.1c0,0,35.15,15.66,62.5,55.5
							c39.76,57.92,40.91,125.31,40.91,125.31S303.94,133.82,267.37,94.16z"/>
					</g>
					<g>
						<g>
							<path class="st14" d="M137.39,136.7c17.89,3.31,39.24,8.62,60.65,17.11c10.26,4.07,20.64,8.77,30.84,13.96
								c26.48,13.49,41.34,27,43.58,56.76l44.92,17.97c0-48.91-26.45-93.53-68.11-114.75c-10.61-5.4-22.22-10.76-34.67-15.69
								c-62.11-24.63-122.13-25.7-122.13-25.7l0,0v211.69l44.92,17.95V136.7"/>
						</g>
					</g>
					<g>
						<path class="st14" d="M272.47,394.76c-18.61-10.31-38.41-19.97-56.2-25.92c-28.14-9.42-56.52-14.84-78.87-17.95v-12.6
							L92.47,320.7v70.99c0,0,55.74,1.74,109.54,19.74c46.51,15.56,115.38,64.71,115.38,64.71V265.22l-44.92-17.97V394.76"/>
					</g>
					<g>
						<path class="st14" d="M213,100.48c12.57,4.71,25.25,10.14,37.7,16.13c16.44,7.92,30.89,18.92,42.79,32.11
							c2.33,2.4,3.42,3.79,3.42,3.79C233.63,42.88,134.89,34.94,134.89,34.94v44.87C157.54,83.64,184.98,89.97,213,100.48z"/>
					</g>
					<g>
						<polygon class="st14" points="24.41,116.44 24.23,97.6 47.56,108.13 47.56,86.5 4.14,68.53 4.12,68.52 4.18,75.58 4.28,90.16 
							4.31,90.15 4.49,111.7 4.49,130.59 47.92,148.56 47.92,126.93 						"/>
					</g>
					<g>
						<polygon class="st14" points="3.71,153.07 47.14,171.04 47.14,392.63 3.71,374.66 						"/>
					</g>
				</g>
				<g>
					<g>
						<linearGradient id="SVGID_15_" gradientUnits="userSpaceOnUse" x1="162.1611" y1="697.4839" x2="162.1611" y2="-149.8684">
							<stop  offset="0.1887" style="stop-color:#51E69B"/>
							<stop  offset="0.948" style="stop-color:#26C5F9"/>
						</linearGradient>
						<path class="st15" d="M267.37,94.16c-27.1-29.39-50.17-42.01-50.17-42.01V2.1c0,0,35.15,15.66,62.5,55.5
							c39.76,57.92,40.91,125.31,40.91,125.31S303.94,133.82,267.37,94.16z"/>
						<linearGradient id="SVGID_16_" gradientUnits="userSpaceOnUse" x1="162.1611" y1="697.4839" x2="162.1611" y2="-149.8684">
							<stop  offset="0.1887" style="stop-color:#51E69B"/>
							<stop  offset="0.948" style="stop-color:#26C5F9"/>
						</linearGradient>
						<path class="st16" d="M267.37,94.16c-27.1-29.39-50.17-42.01-50.17-42.01V2.1c0,0,35.15,15.66,62.5,55.5
							c39.76,57.92,40.91,125.31,40.91,125.31S303.94,133.82,267.37,94.16z"/>
					</g>
					<g>
						<g>
							<linearGradient id="SVGID_17_" gradientUnits="userSpaceOnUse" x1="162.1611" y1="697.4839" x2="162.1611" y2="-149.8684">
								<stop  offset="0.1887" style="stop-color:#51E69B"/>
								<stop  offset="0.948" style="stop-color:#26C5F9"/>
							</linearGradient>
							<path class="st17" d="M137.39,136.7c17.89,3.31,39.24,8.62,60.65,17.11c10.26,4.07,20.64,8.77,30.84,13.96
								c26.48,13.49,41.34,27,43.58,56.76l44.92,17.97c0-48.91-26.45-93.53-68.11-114.75c-10.61-5.4-22.22-10.76-34.67-15.69
								c-62.11-24.63-122.13-25.7-122.13-25.7l0,0v211.69l44.92,17.95V136.7"/>
						</g>
						<g>
							<linearGradient id="SVGID_18_" gradientUnits="userSpaceOnUse" x1="162.1611" y1="697.4839" x2="162.1611" y2="-149.8684">
								<stop  offset="0.1887" style="stop-color:#51E69B"/>
								<stop  offset="0.948" style="stop-color:#26C5F9"/>
							</linearGradient>
							<path class="st18" d="M137.39,136.7c17.89,3.31,39.24,8.62,60.65,17.11c10.26,4.07,20.64,8.77,30.84,13.96
								c26.48,13.49,41.34,27,43.58,56.76l44.92,17.97c0-48.91-26.45-93.53-68.11-114.75c-10.61-5.4-22.22-10.76-34.67-15.69
								c-62.11-24.63-122.13-25.7-122.13-25.7l0,0v211.69l44.92,17.95V136.7"/>
						</g>
					</g>
					<g>
						<linearGradient id="SVGID_19_" gradientUnits="userSpaceOnUse" x1="162.1611" y1="697.4839" x2="162.1611" y2="-149.8684">
							<stop  offset="0.1887" style="stop-color:#51E69B"/>
							<stop  offset="0.948" style="stop-color:#26C5F9"/>
						</linearGradient>
						<path class="st19" d="M272.47,394.76c-18.61-10.31-38.41-19.97-56.2-25.92c-28.14-9.42-56.52-14.84-78.87-17.95v-12.6
							L92.47,320.7v70.99c0,0,55.74,1.74,109.54,19.74c46.51,15.56,115.38,64.71,115.38,64.71V265.22l-44.92-17.97V394.76"/>
						<linearGradient id="SVGID_20_" gradientUnits="userSpaceOnUse" x1="162.1611" y1="697.4839" x2="162.1611" y2="-149.8684">
							<stop  offset="0.1887" style="stop-color:#51E69B"/>
							<stop  offset="0.948" style="stop-color:#26C5F9"/>
						</linearGradient>
						<path class="st20" d="M272.47,394.76c-18.61-10.31-38.41-19.97-56.2-25.92c-28.14-9.42-56.52-14.84-78.87-17.95v-12.6
							L92.47,320.7v70.99c0,0,55.74,1.74,109.54,19.74c46.51,15.56,115.38,64.71,115.38,64.71V265.22l-44.92-17.97V394.76"/>
					</g>
					<g>
						<linearGradient id="SVGID_21_" gradientUnits="userSpaceOnUse" x1="162.1611" y1="697.4839" x2="162.1611" y2="-149.8684">
							<stop  offset="0.1887" style="stop-color:#51E69B"/>
							<stop  offset="0.948" style="stop-color:#26C5F9"/>
						</linearGradient>
						<path class="st21" d="M213,100.48c12.57,4.71,25.25,10.14,37.7,16.13c16.44,7.92,30.89,18.92,42.79,32.11
							c2.33,2.4,3.42,3.79,3.42,3.79C233.63,42.88,134.89,34.94,134.89,34.94v44.87C157.54,83.64,184.98,89.97,213,100.48z"/>
						<linearGradient id="SVGID_22_" gradientUnits="userSpaceOnUse" x1="162.1611" y1="697.4839" x2="162.1611" y2="-149.8684">
							<stop  offset="0.1887" style="stop-color:#51E69B"/>
							<stop  offset="0.948" style="stop-color:#26C5F9"/>
						</linearGradient>
						<path class="st22" d="M213,100.48c12.57,4.71,25.25,10.14,37.7,16.13c16.44,7.92,30.89,18.92,42.79,32.11
							c2.33,2.4,3.42,3.79,3.42,3.79C233.63,42.88,134.89,34.94,134.89,34.94v44.87C157.54,83.64,184.98,89.97,213,100.48z"/>
					</g>
					<g>
						<linearGradient id="SVGID_23_" gradientUnits="userSpaceOnUse" x1="162.1611" y1="697.4839" x2="162.1611" y2="-149.8684">
							<stop  offset="0.1887" style="stop-color:#51E69B"/>
							<stop  offset="0.948" style="stop-color:#26C5F9"/>
						</linearGradient>
						<polygon class="st23" points="24.41,116.44 24.23,97.6 47.56,108.13 47.56,86.5 4.14,68.53 4.12,68.52 4.18,75.58 4.28,90.16 
							4.31,90.15 4.49,111.7 4.49,130.59 47.92,148.56 47.92,126.93 						"/>
						<linearGradient id="SVGID_24_" gradientUnits="userSpaceOnUse" x1="162.1611" y1="697.4839" x2="162.1611" y2="-149.8684">
							<stop  offset="0.1887" style="stop-color:#51E69B"/>
							<stop  offset="0.948" style="stop-color:#26C5F9"/>
						</linearGradient>
						<polygon class="st24" points="24.41,116.44 24.23,97.6 47.56,108.13 47.56,86.5 4.14,68.53 4.12,68.52 4.18,75.58 4.28,90.16 
							4.31,90.15 4.49,111.7 4.49,130.59 47.92,148.56 47.92,126.93 						"/>
					</g>
					<g>
						<linearGradient id="SVGID_25_" gradientUnits="userSpaceOnUse" x1="162.1611" y1="697.4839" x2="162.1611" y2="-149.8684">
							<stop  offset="0.1887" style="stop-color:#51E69B"/>
							<stop  offset="0.948" style="stop-color:#26C5F9"/>
						</linearGradient>
						<polygon class="st25" points="3.71,153.07 47.14,171.04 47.14,392.63 3.71,374.66 						"/>
						<linearGradient id="SVGID_26_" gradientUnits="userSpaceOnUse" x1="162.1611" y1="697.4839" x2="162.1611" y2="-149.8684">
							<stop  offset="0.1887" style="stop-color:#51E69B"/>
							<stop  offset="0.948" style="stop-color:#26C5F9"/>
						</linearGradient>
						<polygon class="st26" points="3.71,153.07 47.14,171.04 47.14,392.63 3.71,374.66 						"/>
					</g>
				</g>
			</g>
		</g>
		<g class="st27">
			<g class="st28">
				<rect x="10.63" y="410.19" width="11.22" height="77.22"/>
				<path d="M29.06,396.64h-6.48c-3.62,0-7.94-0.77-7.94-4.44c0-2.44,2.03-3.9,5.42-3.9c2.24,0,4.4,0.35,5.23,0.53l0.6,0.13
					l1.18-7.08l-0.57-0.1c-1.22-0.22-3.55-0.45-6-0.45c-13.32,0-14.35,8.56-14.35,11.18c0,1.38,0.5,3.09,1.56,4.38
					c-1.65-0.17-3.64-0.27-5.67-0.27H1.45v6.96h27.61V396.64z"/>
				<path d="M127.78,426c3.52,0,6.38-2.91,6.38-6.48c0-3.57-2.8-6.38-6.38-6.38s-6.38,2.8-6.38,6.38
					C121.41,423.21,124.15,426,127.78,426z"/>
				<path d="M143.95,426c3.51,0,6.27-2.85,6.27-6.48c0-3.57-2.75-6.38-6.27-6.38c-3.58,0-6.48,2.86-6.48,6.38
					C137.47,423.15,140.32,426,143.95,426z"/>
				<path d="M136.96,433.68c-19.27,0-27.9,13.68-27.9,27.24c0,8.2,2.05,13.85,6.42,17.54c-1.07-0.11-2.46-0.21-4.09-0.21H55.17
					v-43.38H43.95v53.36c0,12.69-4.17,18.1-13.95,18.1c-3.87,0-7.38-0.6-10.73-1.82l-0.68-0.25l-1.38,9.53l0.5,0.13
					c3.75,1,7.84,1.55,11.51,1.55c17.44,0,25.92-9.19,25.93-28.08h105.76v-28.67C160.93,442.58,152.42,433.68,136.96,433.68z
					 M136.09,442.82c9.44,0,13.84,5.61,13.84,17.66v17.77h-10.23c-13.35,0-19.3-5.51-19.3-17.88
					C120.39,449.55,126.41,442.82,136.09,442.82z"/>
				<path d="M183.1,504.63c0-1.89,1.7-3.02,4.55-3.02c2.26,0,4.39,0.49,4.99,0.64l0.62,0.15l1.17-7.29l-0.53-0.12
					c-1.55-0.36-3.78-0.56-6.14-0.56c-9.87,0-13.37,5.61-13.37,10.42c0,1.21,0.34,2.36,0.93,3.25c-1.43-0.12-3.04-0.12-4.72-0.12
					h-0.58v7.18h26.74v-7.18h-7.03C186.71,507.98,183.1,507.4,183.1,504.63z"/>
				<rect x="179.42" y="409.2" width="11.22" height="78.2"/>
				<path d="M266.75,426c3.51,0,6.27-2.85,6.27-6.48c0-3.57-2.75-6.38-6.27-6.38c-3.58,0-6.48,2.86-6.48,6.38
					C260.27,423.15,263.12,426,266.75,426z"/>
				<path d="M250.58,426c3.52,0,6.38-2.91,6.38-6.48c0-3.57-2.8-6.38-6.38-6.38c-3.57,0-6.38,2.8-6.38,6.38
					C244.21,423.21,246.95,426,250.58,426z"/>
				<path d="M313.84,496.72c-3.57,0-6.38,2.8-6.38,6.38c0,3.7,2.74,6.48,6.38,6.48c3.51,0,6.38-2.91,6.38-6.48
					C320.21,499.52,317.41,496.72,313.84,496.72z"/>
				<path d="M330.01,496.72c-3.58,0-6.48,2.86-6.48,6.38c0,3.64,2.85,6.48,6.48,6.48c3.51,0,6.27-2.85,6.27-6.48
					C336.28,499.52,333.52,496.72,330.01,496.72z"/>
				<path d="M452.66,478.26h-30.07v-18.1c0-17.57-8.28-26.48-24.62-26.48c-16.55,0-27.24,11.42-27.24,29.1
					c0,13.64-4.57,15.48-9.03,15.48h-24.54v-43.38h-11.22v43.38h-43.84v-40.57l-0.37-0.14c-0.1-0.04-10.18-3.86-22.17-3.86
					c-20.75,0-28.12,14.91-28.12,27.68c0,17.52,9.56,26.04,29.21,26.04h100.62c6.82,0,11.97-3.05,14.62-8.62
					c3.91,5.87,11.15,8.62,22.64,8.62h65.37v-52.52h-11.22V478.26z M411.59,461.8v16.46h-11.76c-12.53,0-17.88-4.92-17.88-16.46
					c0-11.88,5.7-18.97,15.26-18.97C407.15,442.82,411.59,448.68,411.59,461.8z M258.45,442.82c6.54,0,11.36,1.79,12.64,2.31v33.12
					h-9.03c-13.35,0-19.3-5.55-19.3-17.99C242.75,449.51,248.77,442.82,258.45,442.82z"/>
				<path d="M440.57,496.72c-3.58,0-6.38,2.8-6.38,6.38c0,3.7,2.74,6.48,6.38,6.48c3.51,0,6.38-2.91,6.38-6.48
					C446.95,499.52,444.15,496.72,440.57,496.72z"/>
				<path d="M456.74,496.72c-3.58,0-6.48,2.86-6.48,6.38c0,3.64,2.85,6.48,6.48,6.48c3.51,0,6.27-2.85,6.27-6.48
					C463.01,499.52,460.26,496.72,456.74,496.72z"/>
				<path d="M488.71,432.72l-0.56-0.17l-2.85,9.65l0.55,0.17c18.75,5.72,26.64,16.14,27.11,35.9H477.9v9.15h46.19v-6.05
					C524.08,454.57,513.83,440.48,488.71,432.72z"/>
				<path d="M579.61,433.72v8.19l0.42,0.12c19.53,5.58,27.73,16.09,28.19,36.22h-56.83V409.2h-11.22v78.2h79.18v-6.16
					c0-23.5-7.85-37-26.19-44.9l29.03-17.82v-11.55l-42.31,26.57L579.61,433.72z"/>
				<path d="M648.92,396.64c-3.62,0-7.94-0.77-7.94-4.44c0-2.44,2.03-3.9,5.43-3.9c2.24,0,4.4,0.35,5.23,0.53l0.6,0.13l1.18-7.08
					l-0.57-0.1c-1.22-0.22-3.55-0.45-6.01-0.45c-13.32,0-14.35,8.56-14.35,11.18c0,1.38,0.5,3.09,1.56,4.38
					c-1.65-0.17-3.64-0.27-5.67-0.27h-0.58v6.96h27.61v-6.96H648.92z"/>
				<rect x="636.97" y="410.19" width="11.22" height="77.22"/>
			</g>
			<g class="st28">
				<linearGradient id="SVGID_27_" gradientUnits="userSpaceOnUse" x1="328.4255" y1="578.1157" x2="328.4255" y2="338.3398">
					<stop  offset="0.1887" style="stop-color:#51E69B"/>
					<stop  offset="0.948" style="stop-color:#26C5F9"/>
				</linearGradient>
				<rect x="10.63" y="410.19" class="st29" width="11.22" height="77.22"/>
				<linearGradient id="SVGID_28_" gradientUnits="userSpaceOnUse" x1="328.4255" y1="578.1157" x2="328.4255" y2="338.3398">
					<stop  offset="0.1887" style="stop-color:#51E69B"/>
					<stop  offset="0.948" style="stop-color:#26C5F9"/>
				</linearGradient>
				<path class="st30" d="M29.06,396.64h-6.48c-3.62,0-7.94-0.77-7.94-4.44c0-2.44,2.03-3.9,5.42-3.9c2.24,0,4.4,0.35,5.23,0.53
					l0.6,0.13l1.18-7.08l-0.57-0.1c-1.22-0.22-3.55-0.45-6-0.45c-13.32,0-14.35,8.56-14.35,11.18c0,1.38,0.5,3.09,1.56,4.38
					c-1.65-0.17-3.64-0.27-5.67-0.27H1.45v6.96h27.61V396.64z"/>
				<linearGradient id="SVGID_29_" gradientUnits="userSpaceOnUse" x1="328.4255" y1="578.1157" x2="328.4255" y2="338.3398">
					<stop  offset="0.1887" style="stop-color:#51E69B"/>
					<stop  offset="0.948" style="stop-color:#26C5F9"/>
				</linearGradient>
				<path class="st31" d="M127.78,426c3.52,0,6.38-2.91,6.38-6.48c0-3.57-2.8-6.38-6.38-6.38s-6.38,2.8-6.38,6.38
					C121.41,423.21,124.15,426,127.78,426z"/>
				<linearGradient id="SVGID_30_" gradientUnits="userSpaceOnUse" x1="328.4255" y1="578.1157" x2="328.4255" y2="338.3398">
					<stop  offset="0.1887" style="stop-color:#51E69B"/>
					<stop  offset="0.948" style="stop-color:#26C5F9"/>
				</linearGradient>
				<path class="st32" d="M143.95,426c3.51,0,6.27-2.85,6.27-6.48c0-3.57-2.75-6.38-6.27-6.38c-3.58,0-6.48,2.86-6.48,6.38
					C137.47,423.15,140.32,426,143.95,426z"/>
				<linearGradient id="SVGID_31_" gradientUnits="userSpaceOnUse" x1="328.4255" y1="578.1157" x2="328.4255" y2="338.3398">
					<stop  offset="0.1887" style="stop-color:#51E69B"/>
					<stop  offset="0.948" style="stop-color:#26C5F9"/>
				</linearGradient>
				<path class="st33" d="M136.96,433.68c-19.27,0-27.9,13.68-27.9,27.24c0,8.2,2.05,13.85,6.42,17.54
					c-1.07-0.11-2.46-0.21-4.09-0.21H55.17v-43.38H43.95v53.36c0,12.69-4.17,18.1-13.95,18.1c-3.87,0-7.38-0.6-10.73-1.82
					l-0.68-0.25l-1.38,9.53l0.5,0.13c3.75,1,7.84,1.55,11.51,1.55c17.44,0,25.92-9.19,25.93-28.08h105.76v-28.67
					C160.93,442.58,152.42,433.68,136.96,433.68z M136.09,442.82c9.44,0,13.84,5.61,13.84,17.66v17.77h-10.23
					c-13.35,0-19.3-5.51-19.3-17.88C120.39,449.55,126.41,442.82,136.09,442.82z"/>
				<linearGradient id="SVGID_32_" gradientUnits="userSpaceOnUse" x1="328.4255" y1="578.1157" x2="328.4255" y2="338.3398">
					<stop  offset="0.1887" style="stop-color:#51E69B"/>
					<stop  offset="0.948" style="stop-color:#26C5F9"/>
				</linearGradient>
				<path class="st34" d="M183.1,504.63c0-1.89,1.7-3.02,4.55-3.02c2.26,0,4.39,0.49,4.99,0.64l0.62,0.15l1.17-7.29l-0.53-0.12
					c-1.55-0.36-3.78-0.56-6.14-0.56c-9.87,0-13.37,5.61-13.37,10.42c0,1.21,0.34,2.36,0.93,3.25c-1.43-0.12-3.04-0.12-4.72-0.12
					h-0.58v7.18h26.74v-7.18h-7.03C186.71,507.98,183.1,507.4,183.1,504.63z"/>
				<linearGradient id="SVGID_33_" gradientUnits="userSpaceOnUse" x1="328.4255" y1="578.1157" x2="328.4255" y2="338.3398">
					<stop  offset="0.1887" style="stop-color:#51E69B"/>
					<stop  offset="0.948" style="stop-color:#26C5F9"/>
				</linearGradient>
				<rect x="179.42" y="409.2" class="st35" width="11.22" height="78.2"/>
				<linearGradient id="SVGID_34_" gradientUnits="userSpaceOnUse" x1="328.4255" y1="578.1157" x2="328.4255" y2="338.3398">
					<stop  offset="0.1887" style="stop-color:#51E69B"/>
					<stop  offset="0.948" style="stop-color:#26C5F9"/>
				</linearGradient>
				<path class="st36" d="M266.75,426c3.51,0,6.27-2.85,6.27-6.48c0-3.57-2.75-6.38-6.27-6.38c-3.58,0-6.48,2.86-6.48,6.38
					C260.27,423.15,263.12,426,266.75,426z"/>
				<linearGradient id="SVGID_35_" gradientUnits="userSpaceOnUse" x1="328.4255" y1="578.1157" x2="328.4255" y2="338.3398">
					<stop  offset="0.1887" style="stop-color:#51E69B"/>
					<stop  offset="0.948" style="stop-color:#26C5F9"/>
				</linearGradient>
				<path class="st37" d="M250.58,426c3.52,0,6.38-2.91,6.38-6.48c0-3.57-2.8-6.38-6.38-6.38c-3.57,0-6.38,2.8-6.38,6.38
					C244.21,423.21,246.95,426,250.58,426z"/>
				<linearGradient id="SVGID_36_" gradientUnits="userSpaceOnUse" x1="328.4255" y1="578.1157" x2="328.4255" y2="338.3398">
					<stop  offset="0.1887" style="stop-color:#51E69B"/>
					<stop  offset="0.948" style="stop-color:#26C5F9"/>
				</linearGradient>
				<path class="st38" d="M313.84,496.72c-3.57,0-6.38,2.8-6.38,6.38c0,3.7,2.74,6.48,6.38,6.48c3.51,0,6.38-2.91,6.38-6.48
					C320.21,499.52,317.41,496.72,313.84,496.72z"/>
				<linearGradient id="SVGID_37_" gradientUnits="userSpaceOnUse" x1="328.4255" y1="578.1157" x2="328.4255" y2="338.3398">
					<stop  offset="0.1887" style="stop-color:#51E69B"/>
					<stop  offset="0.948" style="stop-color:#26C5F9"/>
				</linearGradient>
				<path class="st39" d="M330.01,496.72c-3.58,0-6.48,2.86-6.48,6.38c0,3.64,2.85,6.48,6.48,6.48c3.51,0,6.27-2.85,6.27-6.48
					C336.28,499.52,333.52,496.72,330.01,496.72z"/>
				<linearGradient id="SVGID_38_" gradientUnits="userSpaceOnUse" x1="328.4255" y1="578.1157" x2="328.4255" y2="338.3398">
					<stop  offset="0.1887" style="stop-color:#51E69B"/>
					<stop  offset="0.948" style="stop-color:#26C5F9"/>
				</linearGradient>
				<path class="st40" d="M452.66,478.26h-30.07v-18.1c0-17.57-8.28-26.48-24.62-26.48c-16.55,0-27.24,11.42-27.24,29.1
					c0,13.64-4.57,15.48-9.03,15.48h-24.54v-43.38h-11.22v43.38h-43.84v-40.57l-0.37-0.14c-0.1-0.04-10.18-3.86-22.17-3.86
					c-20.75,0-28.12,14.91-28.12,27.68c0,17.52,9.56,26.04,29.21,26.04h100.62c6.82,0,11.97-3.05,14.62-8.62
					c3.91,5.87,11.15,8.62,22.64,8.62h65.37v-52.52h-11.22V478.26z M411.59,461.8v16.46h-11.76c-12.53,0-17.88-4.92-17.88-16.46
					c0-11.88,5.7-18.97,15.26-18.97C407.15,442.82,411.59,448.68,411.59,461.8z M258.45,442.82c6.54,0,11.36,1.79,12.64,2.31v33.12
					h-9.03c-13.35,0-19.3-5.55-19.3-17.99C242.75,449.51,248.77,442.82,258.45,442.82z"/>
				<linearGradient id="SVGID_39_" gradientUnits="userSpaceOnUse" x1="328.4255" y1="578.1157" x2="328.4255" y2="338.3398">
					<stop  offset="0.1887" style="stop-color:#51E69B"/>
					<stop  offset="0.948" style="stop-color:#26C5F9"/>
				</linearGradient>
				<path class="st41" d="M440.57,496.72c-3.58,0-6.38,2.8-6.38,6.38c0,3.7,2.74,6.48,6.38,6.48c3.51,0,6.38-2.91,6.38-6.48
					C446.95,499.52,444.15,496.72,440.57,496.72z"/>
				<linearGradient id="SVGID_40_" gradientUnits="userSpaceOnUse" x1="328.4255" y1="578.1157" x2="328.4255" y2="338.3398">
					<stop  offset="0.1887" style="stop-color:#51E69B"/>
					<stop  offset="0.948" style="stop-color:#26C5F9"/>
				</linearGradient>
				<path class="st42" d="M456.74,496.72c-3.58,0-6.48,2.86-6.48,6.38c0,3.64,2.85,6.48,6.48,6.48c3.51,0,6.27-2.85,6.27-6.48
					C463.01,499.52,460.26,496.72,456.74,496.72z"/>
				<linearGradient id="SVGID_41_" gradientUnits="userSpaceOnUse" x1="328.4255" y1="578.1157" x2="328.4255" y2="338.3398">
					<stop  offset="0.1887" style="stop-color:#51E69B"/>
					<stop  offset="0.948" style="stop-color:#26C5F9"/>
				</linearGradient>
				<path class="st43" d="M488.71,432.72l-0.56-0.17l-2.85,9.65l0.55,0.17c18.75,5.72,26.64,16.14,27.11,35.9H477.9v9.15h46.19
					v-6.05C524.08,454.57,513.83,440.48,488.71,432.72z"/>
				<linearGradient id="SVGID_42_" gradientUnits="userSpaceOnUse" x1="328.4255" y1="578.1157" x2="328.4255" y2="338.3398">
					<stop  offset="0.1887" style="stop-color:#51E69B"/>
					<stop  offset="0.948" style="stop-color:#26C5F9"/>
				</linearGradient>
				<path class="st44" d="M579.61,433.72v8.19l0.42,0.12c19.53,5.58,27.73,16.09,28.19,36.22h-56.83V409.2h-11.22v78.2h79.18v-6.16
					c0-23.5-7.85-37-26.19-44.9l29.03-17.82v-11.55l-42.31,26.57L579.61,433.72z"/>
				<linearGradient id="SVGID_43_" gradientUnits="userSpaceOnUse" x1="328.4255" y1="578.1157" x2="328.4255" y2="338.3398">
					<stop  offset="0.1887" style="stop-color:#51E69B"/>
					<stop  offset="0.948" style="stop-color:#26C5F9"/>
				</linearGradient>
				<path class="st45" d="M648.92,396.64c-3.62,0-7.94-0.77-7.94-4.44c0-2.44,2.03-3.9,5.43-3.9c2.24,0,4.4,0.35,5.23,0.53l0.6,0.13
					l1.18-7.08l-0.57-0.1c-1.22-0.22-3.55-0.45-6.01-0.45c-13.32,0-14.35,8.56-14.35,11.18c0,1.38,0.5,3.09,1.56,4.38
					c-1.65-0.17-3.64-0.27-5.67-0.27h-0.58v6.96h27.61v-6.96H648.92z"/>
				<linearGradient id="SVGID_44_" gradientUnits="userSpaceOnUse" x1="328.4255" y1="578.1157" x2="328.4255" y2="338.3398">
					<stop  offset="0.1887" style="stop-color:#51E69B"/>
					<stop  offset="0.948" style="stop-color:#26C5F9"/>
				</linearGradient>
				<rect x="636.97" y="410.19" class="st46" width="11.22" height="77.22"/>
			</g>
			<g class="st28">
				<rect x="10.63" y="410.19" class="st1" width="11.22" height="77.22"/>
				<path class="st1" d="M29.06,396.64h-6.48c-3.62,0-7.94-0.77-7.94-4.44c0-2.44,2.03-3.9,5.42-3.9c2.24,0,4.4,0.35,5.23,0.53
					l0.6,0.13l1.18-7.08l-0.57-0.1c-1.22-0.22-3.55-0.45-6-0.45c-13.32,0-14.35,8.56-14.35,11.18c0,1.38,0.5,3.09,1.56,4.38
					c-1.65-0.17-3.64-0.27-5.67-0.27H1.45v6.96h27.61V396.64z"/>
				<path class="st1" d="M127.78,426c3.52,0,6.38-2.91,6.38-6.48c0-3.57-2.8-6.38-6.38-6.38s-6.38,2.8-6.38,6.38
					C121.41,423.21,124.15,426,127.78,426z"/>
				<path class="st1" d="M143.95,426c3.51,0,6.27-2.85,6.27-6.48c0-3.57-2.75-6.38-6.27-6.38c-3.58,0-6.48,2.86-6.48,6.38
					C137.47,423.15,140.32,426,143.95,426z"/>
				<path class="st1" d="M136.96,433.68c-19.27,0-27.9,13.68-27.9,27.24c0,8.2,2.05,13.85,6.42,17.54
					c-1.07-0.11-2.46-0.21-4.09-0.21H55.17v-43.38H43.95v53.36c0,12.69-4.17,18.1-13.95,18.1c-3.87,0-7.38-0.6-10.73-1.82
					l-0.68-0.25l-1.38,9.53l0.5,0.13c3.75,1,7.84,1.55,11.51,1.55c17.44,0,25.92-9.19,25.93-28.08h105.76v-28.67
					C160.93,442.58,152.42,433.68,136.96,433.68z M136.09,442.82c9.44,0,13.84,5.61,13.84,17.66v17.77h-10.23
					c-13.35,0-19.3-5.51-19.3-17.88C120.39,449.55,126.41,442.82,136.09,442.82z"/>
				<path class="st1" d="M183.1,504.63c0-1.89,1.7-3.02,4.55-3.02c2.26,0,4.39,0.49,4.99,0.64l0.62,0.15l1.17-7.29l-0.53-0.12
					c-1.55-0.36-3.78-0.56-6.14-0.56c-9.87,0-13.37,5.61-13.37,10.42c0,1.21,0.34,2.36,0.93,3.25c-1.43-0.12-3.04-0.12-4.72-0.12
					h-0.58v7.18h26.74v-7.18h-7.03C186.71,507.98,183.1,507.4,183.1,504.63z"/>
				<rect x="179.42" y="409.2" class="st1" width="11.22" height="78.2"/>
				<path class="st1" d="M266.75,426c3.51,0,6.27-2.85,6.27-6.48c0-3.57-2.75-6.38-6.27-6.38c-3.58,0-6.48,2.86-6.48,6.38
					C260.27,423.15,263.12,426,266.75,426z"/>
				<path class="st1" d="M250.58,426c3.52,0,6.38-2.91,6.38-6.48c0-3.57-2.8-6.38-6.38-6.38c-3.57,0-6.38,2.8-6.38,6.38
					C244.21,423.21,246.95,426,250.58,426z"/>
				<path class="st1" d="M313.84,496.72c-3.57,0-6.38,2.8-6.38,6.38c0,3.7,2.74,6.48,6.38,6.48c3.51,0,6.38-2.91,6.38-6.48
					C320.21,499.52,317.41,496.72,313.84,496.72z"/>
				<path class="st1" d="M330.01,496.72c-3.58,0-6.48,2.86-6.48,6.38c0,3.64,2.85,6.48,6.48,6.48c3.51,0,6.27-2.85,6.27-6.48
					C336.28,499.52,333.52,496.72,330.01,496.72z"/>
				<path class="st1" d="M452.66,478.26h-30.07v-18.1c0-17.57-8.28-26.48-24.62-26.48c-16.55,0-27.24,11.42-27.24,29.1
					c0,13.64-4.57,15.48-9.03,15.48h-24.54v-43.38h-11.22v43.38h-43.84v-40.57l-0.37-0.14c-0.1-0.04-10.18-3.86-22.17-3.86
					c-20.75,0-28.12,14.91-28.12,27.68c0,17.52,9.56,26.04,29.21,26.04h100.62c6.82,0,11.97-3.05,14.62-8.62
					c3.91,5.87,11.15,8.62,22.64,8.62h65.37v-52.52h-11.22V478.26z M411.59,461.8v16.46h-11.76c-12.53,0-17.88-4.92-17.88-16.46
					c0-11.88,5.7-18.97,15.26-18.97C407.15,442.82,411.59,448.68,411.59,461.8z M258.45,442.82c6.54,0,11.36,1.79,12.64,2.31v33.12
					h-9.03c-13.35,0-19.3-5.55-19.3-17.99C242.75,449.51,248.77,442.82,258.45,442.82z"/>
				<path class="st1" d="M440.57,496.72c-3.58,0-6.38,2.8-6.38,6.38c0,3.7,2.74,6.48,6.38,6.48c3.51,0,6.38-2.91,6.38-6.48
					C446.95,499.52,444.15,496.72,440.57,496.72z"/>
				<path class="st1" d="M456.74,496.72c-3.58,0-6.48,2.86-6.48,6.38c0,3.64,2.85,6.48,6.48,6.48c3.51,0,6.27-2.85,6.27-6.48
					C463.01,499.52,460.26,496.72,456.74,496.72z"/>
				<path class="st1" d="M488.71,432.72l-0.56-0.17l-2.85,9.65l0.55,0.17c18.75,5.72,26.64,16.14,27.11,35.9H477.9v9.15h46.19v-6.05
					C524.08,454.57,513.83,440.48,488.71,432.72z"/>
				<path class="st1" d="M579.61,433.72v8.19l0.42,0.12c19.53,5.58,27.73,16.09,28.19,36.22h-56.83V409.2h-11.22v78.2h79.18v-6.16
					c0-23.5-7.85-37-26.19-44.9l29.03-17.82v-11.55l-42.31,26.57L579.61,433.72z"/>
				<path class="st1" d="M648.92,396.64c-3.62,0-7.94-0.77-7.94-4.44c0-2.44,2.03-3.9,5.43-3.9c2.24,0,4.4,0.35,5.23,0.53l0.6,0.13
					l1.18-7.08l-0.57-0.1c-1.22-0.22-3.55-0.45-6.01-0.45c-13.32,0-14.35,8.56-14.35,11.18c0,1.38,0.5,3.09,1.56,4.38
					c-1.65-0.17-3.64-0.27-5.67-0.27h-0.58v6.96h27.61v-6.96H648.92z"/>
				<rect x="636.97" y="410.19" class="st1" width="11.22" height="77.22"/>
			</g>
		</g>
		<g class="st27">
			<path class="st47" d="M32.02,587.5c-8.04,0-11.27-3.58-11.58-9.32H19.2c-3.14,0-4.2,1.9-3.45,6.41l2.3,14.41h-3.98l-2.25-14.05
				c-0.93-5.96,1.24-9.99,7.56-9.99h1.24c0.84-4.86,4.46-8.71,10.87-8.71c6.32,0,9.46,3.62,9.46,9.9v8.13h4.42v3.23H32.02z
				 M36.97,576.85c0-5.3-2.17-7.38-5.83-7.38c-4.11,0-6.58,2.92-6.58,7.33c0,5.04,2.39,7.47,8.04,7.47h4.37V576.85z"/>
			<path class="st47" d="M44.7,584.28h8.88v-17.54h4.07v20.77H44.7V584.28z M48.46,596.47c-1.33,0-2.34-1.02-2.34-2.39
				c0-1.28,1.02-2.34,2.34-2.34c1.28,0,2.34,1.02,2.34,2.34C50.8,595.41,49.74,596.47,48.46,596.47z M55,596.47
				c-1.33,0-2.39-1.02-2.39-2.39c0-1.28,1.06-2.34,2.39-2.34c1.28,0,2.3,1.02,2.3,2.34C57.3,595.41,56.28,596.47,55,596.47z"/>
			<path class="st47" d="M58.23,598.24l0.49-3.36c1.33,0.49,2.78,0.75,4.42,0.75c3.67,0,5.88-1.77,5.88-7.56v-21.34h4.07v17.54h4.86
				v3.23h-4.86v0.22c0,6.28-2.3,11.14-10.25,11.14C61.19,598.86,59.55,598.6,58.23,598.24z"/>
			<path class="st47" d="M77.32,584.28H91.5c-0.13-8.66-3.84-12.9-11.58-15.11v-3l16.75-10.52v4.11l-12.02,7.38
				c6.67,2.74,10.61,7.42,10.87,17.15h4.07v3.23H77.32V584.28z"/>
			<path class="st47" d="M98.93,584.28h6.19v-27.93h4.07v31.15H98.93V584.28z"/>
			<path class="st47" d="M117.58,556.35h4.07v31.15h-4.07V556.35z"/>
			<path class="st47" d="M161.86,585.25c0,8.31-3.98,12.46-11.67,12.46c-6.1,0-11-3.27-11-12.33c0-2.87,0.4-5.79,1.1-8.4l4.2-0.8
				c-0.84,2.92-1.24,5.92-1.24,8.79c0,7.56,3.84,9.5,7.34,9.5c4.2,0,7.2-2.21,7.2-8.97v-18.78h4.07V585.25z M148.07,568.64
				c0-1.33,1.06-2.43,2.39-2.43c1.33,0,2.43,1.06,2.43,2.43c0,1.33-1.1,2.39-2.43,2.39C149.13,571.02,148.07,569.96,148.07,568.64z"
				/>
			<path class="st47" d="M164.82,550.56l3.93-2.96c0.31,0.31,1.94,1.81,4.15,1.81c2.47,0,4.29-1.59,4.64-1.9v3.23
				c-0.35,0.31-1.9,1.68-4.82,1.68c-2.34,0-3.76-1.19-3.98-1.41l-2.3,1.68L164.82,550.56z M169.9,556.35h4.07v31.15h-4.07V556.35z"
				/>
			<path class="st47" d="M172.6,598.24l0.49-3.36c1.33,0.49,2.78,0.75,4.42,0.75c3.67,0,5.88-1.77,5.88-7.56v-21.34h4.06v17.54h4.86
				v3.23h-4.86v0.22c0,6.28-2.3,11.14-10.25,11.14C175.56,598.86,173.93,598.6,172.6,598.24z"/>
			<path class="st47" d="M191.69,584.28h2.56c1.5,0,3.14,0.13,3.14,0.13c-1.86-1.37-2.92-3.84-2.92-7.38
				c0-6.01,4.07-10.78,10.69-10.78c5.61,0,9.85,2.87,9.85,10.25c0,3.14-1.19,6.27-3.45,7.91c0,0,2.25-0.13,3.84-0.13h3.05v3.23
				h-26.78V584.28z M210.91,576.77c0-4.64-2.03-7.29-6.1-7.29c-3.18,0-6.23,2.21-6.23,7.25c0,4.91,2.21,7.56,6.19,7.56
				C208.09,584.28,210.91,581.94,210.91,576.77z M199.34,560.28c0-1.28,1.02-2.34,2.34-2.34c1.28,0,2.34,1.02,2.34,2.34
				s-1.06,2.39-2.34,2.39C200.35,562.67,199.34,561.65,199.34,560.28z M205.83,560.28c0-1.28,1.06-2.34,2.39-2.34
				c1.28,0,2.3,1.02,2.3,2.34s-1.02,2.39-2.3,2.39C206.89,562.67,205.83,561.65,205.83,560.28z"/>
			<path class="st47" d="M217.81,584.28H224v-27.93h4.07v31.15h-10.25V584.28z"/>
			<path class="st47" d="M236.46,556.35h4.07v31.15h-4.07V556.35z"/>
			<path class="st47" d="M246.98,598.02l0.26-3.4c0,0,3.71,0.84,7.07,0.84c4.82,0,8.44-1.81,8.44-6.89v-1.06h-4.46
				c-8.48,0-11.58-4.02-11.58-10.3c0-5.83,3.58-10.96,11.14-10.96c4.86,0,8.88,1.55,8.88,1.55v20.55c0,5.17-3.36,10.34-12.86,10.34
				C250.47,598.68,246.98,598.02,246.98,598.02z M262.75,570.49c0,0-2.17-1.02-5.35-1.02c-4.11,0-6.58,2.92-6.58,7.29
				c0,5.04,2.34,7.51,8.04,7.51h3.89V570.49z"/>
			<path class="st47" d="M294.93,587.5c-8.48,0-11.58-4.02-11.58-10.3c0-5.83,3.58-10.96,11.14-10.96c4.86,0,8.88,1.55,8.88,1.55
				v16.48h4.9v3.23H294.93z M299.39,570.49c0,0-2.17-1.02-5.35-1.02c-4.11,0-6.58,2.92-6.58,7.29c0,5.04,2.34,7.51,8.04,7.51h3.89
				V570.49z M288.52,560.28c0-1.28,1.02-2.34,2.34-2.34c1.28,0,2.34,1.02,2.34,2.34s-1.06,2.39-2.34,2.39
				C289.53,562.67,288.52,561.65,288.52,560.28z M295.01,560.28c0-1.28,1.06-2.34,2.39-2.34c1.28,0,2.3,1.02,2.3,2.34
				s-1.02,2.39-2.3,2.39C296.07,562.67,295.01,561.65,295.01,560.28z"/>
			<path class="st47" d="M307.61,584.28h8.88v-17.54h4.07v17.54h4.86v3.23h-17.81V584.28z M311.37,596.47
				c-1.33,0-2.34-1.02-2.34-2.39c0-1.28,1.02-2.34,2.34-2.34c1.28,0,2.34,1.02,2.34,2.34C313.71,595.41,312.65,596.47,311.37,596.47
				z M317.91,596.47c-1.33,0-2.39-1.02-2.39-2.39c0-1.28,1.06-2.34,2.39-2.34c1.28,0,2.3,1.02,2.3,2.34
				C320.2,595.41,319.19,596.47,317.91,596.47z"/>
			<path class="st47" d="M324.8,584.28h6.45v-17.54h4.07v20.77H324.8V584.28z M327.94,594.13c0-1.33,1.06-2.39,2.39-2.39
				c1.33,0,2.43,1.02,2.43,2.39c0,1.33-1.1,2.39-2.43,2.39C329,596.52,327.94,595.5,327.94,594.13z"/>
			<path class="st47" d="M333.46,598.24l0.49-3.36c1.33,0.49,2.78,0.75,4.42,0.75c3.67,0,5.88-1.77,5.88-7.56v-21.34h4.07v17.54
				h4.86v3.23h-4.86v0.22c0,6.28-2.3,11.14-10.25,11.14C336.42,598.86,334.79,598.6,333.46,598.24z"/>
			<path class="st47" d="M352.55,584.28h1.46c4.91,0,8.97-0.88,12.06-2.3c-3.14-2.96-6.1-6.23-10.61-7.69l0.35-2.83
				c3.45-2.61,8.35-5.3,12.77-5.3c6.01,0,8.53,3.27,8.53,6.85c0,3.09-1.81,6.45-5.3,9.15c1.86,1.28,3.89,2.12,6.36,2.12h2.7v3.23
				h-3.27c-3.76,0-6.54-1.37-8.97-3.27c-3.8,1.99-8.84,3.27-14.98,3.27h-1.1V584.28z M369.21,580.08c2.52-1.9,3.84-4.24,3.84-6.54
				c0-2.39-1.5-4.33-4.91-4.33c-3.05,0-6.58,2.17-8.53,3.54C363.47,574.2,366.25,577.43,369.21,580.08z"/>
			<path class="st47" d="M380.22,584.28h6.19v-27.93h4.07v31.15h-10.25V584.28z"/>
			<path class="st47" d="M398.87,556.35h4.07v31.15h-4.07V556.35z"/>
			<path class="st47" d="M431.48,587.5c-8.48,0-11.58-4.02-11.58-10.3c0-5.83,3.58-10.96,11.14-10.96c4.86,0,8.88,1.55,8.88,1.55
				v16.48h4.9v3.23H431.48z M435.95,570.49c0,0-2.17-1.02-5.35-1.02c-4.11,0-6.58,2.92-6.58,7.29c0,5.04,2.34,7.51,8.04,7.51h3.89
				V570.49z M425.07,560.28c0-1.28,1.02-2.34,2.34-2.34c1.28,0,2.34,1.02,2.34,2.34s-1.06,2.39-2.34,2.39
				C426.09,562.67,425.07,561.65,425.07,560.28z M431.57,560.28c0-1.28,1.06-2.34,2.39-2.34c1.28,0,2.3,1.02,2.3,2.34
				s-1.02,2.39-2.3,2.39C432.63,562.67,431.57,561.65,431.57,560.28z"/>
			<path class="st47" d="M444.17,584.28h1.46c4.91,0,8.97-0.88,12.06-2.3c-3.14-2.96-6.1-6.23-10.61-7.69l0.35-2.83
				c3.45-2.61,8.35-5.3,12.77-5.3c6.01,0,8.53,3.27,8.53,6.85c0,3.09-1.81,6.45-5.3,9.15c1.86,1.28,3.89,2.12,6.36,2.12h2.7v3.23
				h-3.27c-3.76,0-6.54-1.37-8.97-3.27c-3.8,1.99-8.84,3.27-14.98,3.27h-1.1V584.28z M460.83,580.08c2.52-1.9,3.84-4.24,3.84-6.54
				c0-2.39-1.5-4.33-4.91-4.33c-3.05,0-6.58,2.17-8.53,3.54C455.08,574.2,457.87,577.43,460.83,580.08z M456.98,559.49
				c0-1.33,1.06-2.43,2.39-2.43s2.43,1.06,2.43,2.43c0,1.33-1.1,2.39-2.43,2.39S456.98,560.81,456.98,559.49z"/>
			<path class="st47" d="M471.83,584.28h6.19v-27.93h4.07v27.93h4.86v3.23h-15.11V584.28z"/>
			<path class="st47" d="M486.28,584.28h6.19v-27.93h4.07v31.15h-10.25V584.28z"/>
			<path class="st47" d="M504.93,556.35H509v31.15h-4.07V556.35z"/>
			<path class="st47" d="M546.61,587.5c-8.04,0-11.27-3.58-11.58-9.32h-1.24c-3.14,0-4.2,1.9-3.45,6.41l2.3,14.41h-3.98l-2.25-14.05
				c-0.93-5.96,1.24-9.99,7.56-9.99h1.24c0.84-4.86,4.46-8.71,10.87-8.71c6.32,0,9.46,3.62,9.46,9.9v8.13h4.42v3.23H546.61z
				 M551.55,576.85c0-5.3-2.17-7.38-5.83-7.38c-4.11,0-6.58,2.92-6.58,7.33c0,5.04,2.39,7.47,8.04,7.47h4.38V576.85z"/>
			<path class="st47" d="M559.29,584.28h8.88v-17.54h4.07v17.54h4.86v3.23h-17.81V584.28z M563.05,596.47
				c-1.33,0-2.34-1.02-2.34-2.39c0-1.28,1.02-2.34,2.34-2.34c1.28,0,2.34,1.02,2.34,2.34C565.39,595.41,564.33,596.47,563.05,596.47
				z M569.59,596.47c-1.33,0-2.39-1.02-2.39-2.39c0-1.28,1.06-2.34,2.39-2.34c1.28,0,2.3,1.02,2.3,2.34
				C571.88,595.41,570.87,596.47,569.59,596.47z"/>
			<path class="st47" d="M576.48,584.28h6.19v-27.93h4.07v27.93h4.86v3.23h-15.11V584.28z"/>
			<path class="st47" d="M590.93,584.28h1.46c4.91,0,8.97-0.88,12.06-2.3c-3.14-2.96-6.1-6.23-10.61-7.69l0.35-2.83
				c3.45-2.61,8.35-5.3,12.77-5.3c6.01,0,8.53,3.27,8.53,6.85c0,3.09-1.81,6.45-5.3,9.15c1.86,1.28,3.89,2.12,6.36,2.12h2.7v3.23
				h-3.27c-3.76,0-6.54-1.37-8.97-3.27c-3.8,1.99-8.84,3.27-14.98,3.27h-1.1V584.28z M607.59,580.08c2.52-1.9,3.84-4.24,3.84-6.54
				c0-2.39-1.5-4.33-4.91-4.33c-3.05,0-6.58,2.17-8.53,3.54C601.85,574.2,604.63,577.43,607.59,580.08z"/>
			<path class="st47" d="M618.6,584.28h6.45v-17.54h4.07v17.54h4.55v3.23H618.6V584.28z M620.76,560.28c0-1.28,1.02-2.34,2.34-2.34
				c1.28,0,2.34,1.02,2.34,2.34s-1.06,2.39-2.34,2.39C621.78,562.67,620.76,561.65,620.76,560.28z M627.26,560.28
				c0-1.28,1.06-2.34,2.39-2.34c1.28,0,2.3,1.02,2.3,2.34s-1.02,2.39-2.3,2.39C628.32,562.67,627.26,561.65,627.26,560.28z"/>
			<path class="st47" d="M633,584.28h6.19v-27.93h4.07v31.15H633V584.28z"/>
		</g>
	</g>
</g>
</svg>
