<svg id="Ebene_1" data-name="Ebene 1" xmlns="http://www.w3.org/2000/svg" xmlns:xlink="http://www.w3.org/1999/xlink" viewBox="0 0 927.86 927.86"><defs><clipPath id="clip-path"><circle cx="463.93" cy="463.93" r="463.93" style="fill:none"/></clipPath><linearGradient id="Unbenannter_Verlauf" x1="-785.55" y1="4490.07" x2="-785.55" y2="4500.46" gradientTransform="matrix(-0.67, 0.75, 0.75, 0.67, -3540.73, -2116.37)" gradientUnits="userSpaceOnUse"><stop offset="0.5" stop-color="#58595b"/><stop offset="0.5" stop-color="#454547"/></linearGradient><linearGradient id="Unbenannter_Verlauf_2" x1="-551.39" y1="4491.84" x2="-551.39" y2="4504.31" xlink:href="#Unbenannter_Verlauf"/><linearGradient id="Unbenannter_Verlauf_3" x1="-789.38" y1="4487.55" x2="-775.24" y2="4487.55" xlink:href="#Unbenannter_Verlauf"/><linearGradient id="Unbenannter_Verlauf_4" x1="-553.88" y1="4487.76" x2="-539.74" y2="4487.76" xlink:href="#Unbenannter_Verlauf"/></defs><title>es-banner-dataimanager-02</title><g style="clip-path:url(#clip-path)"><circle cx="463.93" cy="463.93" r="463.93" style="fill:#deedf1"/><path d="M847.82,518.81a126.8,126.8,0,0,0-96.68-123.17C748.81,302.09,672.33,227,578.27,227a172.55,172.55,0,0,0-135.82,65.9,97.1,97.1,0,0,0-174,59.43,90.53,90.53,0,0,0,1,13.76,142.51,142.51,0,0,0-25.12-2.29,140.9,140.9,0,0,0,0,281.81h477A126.73,126.73,0,0,0,847.86,518.84Z" style="fill:#3d6a8c"/><polygon points="461.9 363.34 570.41 367.26 588.04 385.82 582.34 543.4 455.55 538.81 461.9 363.34" style="fill:#e2e2e2"/><rect x="497.63" y="441.01" width="5.64" height="61.62" transform="translate(10.86 954.9) rotate(-87.93)" style="fill:#ccc"/><rect x="458.59" y="447.5" width="32.31" height="8.8" transform="translate(5.99 910.01) rotate(-87.93)" style="fill:#22405a"/><rect x="477.05" y="454.04" width="20.16" height="8.8" transform="translate(11.39 928.69) rotate(-87.93)" style="fill:#3d6a8c"/><rect x="492.96" y="457.93" width="13.28" height="8.8" transform="translate(19.53 944.9) rotate(-87.93)" style="fill:#4f7899"/><rect x="503.75" y="455.34" width="19.54" height="8.7" transform="translate(35.58 956.27) rotate(-87.93)" style="fill:#739cb9"/><rect x="520.18" y="458.67" width="14.03" height="8.8" transform="translate(45.39 973.19) rotate(-87.93)" style="fill:#9fbfd3"/><rect x="522.34" y="355.84" width="4.26" height="61.62" transform="translate(119.13 896.81) rotate(-87.93)" style="fill:#ccc"/><rect x="522.01" y="345.49" width="4.26" height="103.58" transform="translate(108.19 906.73) rotate(-87.93)" style="fill:#ccc"/><rect x="521.74" y="353.01" width="4.26" height="103.58" transform="translate(100.41 913.71) rotate(-87.93)" style="fill:#ccc"/><rect x="521.47" y="360.52" width="4.26" height="103.58" transform="translate(92.64 920.68) rotate(-87.93)" style="fill:#ccc"/><rect x="495.91" y="395.81" width="4.26" height="48.63" transform="translate(58.35 900.97) rotate(-87.71)" style="fill:#ccc"/><polygon points="569.76 385.16 588.04 385.82 570.41 367.26 569.76 385.16" style="fill:#ccc"/><rect x="476.67" y="477.66" width="6.51" height="21.79" transform="translate(-25.65 950.52) rotate(-87.93)" style="fill:#6b2222"/><rect x="504.01" y="478.59" width="6.51" height="21.92" transform="translate(-0.29 978.8) rotate(-87.93)" style="fill:#deedf1"/><rect x="531.11" y="479.63" width="6.51" height="21.79" transform="translate(24.86 1006.82) rotate(-87.93)" style="fill:#739cb9"/><rect x="558.34" y="480.55" width="6.51" height="21.92" transform="translate(50.12 1034.98) rotate(-87.93)" style="fill:#deedf1"/><rect x="476.26" y="488.68" width="6.51" height="21.79" transform="translate(-37.05 960.73) rotate(-87.93)" style="fill:#995b5b"/><rect x="475.87" y="499.7" width="6.51" height="21.79" transform="translate(-48.44 970.96) rotate(-87.93)" style="fill:#d3aeae"/><rect x="475.47" y="510.58" width="6.51" height="21.79" transform="translate(-59.7 981.05) rotate(-87.93)" style="fill:#d3aeae"/><rect x="530.71" y="490.64" width="6.51" height="21.79" transform="translate(13.47 1017.04) rotate(-87.93)" style="fill:#3d6a8c"/><rect x="557.94" y="491.56" width="6.51" height="21.92" transform="translate(38.73 1045.2) rotate(-87.93)" style="fill:#deedf1"/><rect x="557.55" y="502.58" width="6.51" height="21.92" transform="translate(27.34 1055.43) rotate(-87.93)" style="fill:#deedf1"/><polygon points="422.23 372.81 529.98 359.4 550.34 374.91 569.81 531.38 443.91 547.05 422.23 372.81" style="fill:#efefef"/><rect x="456.92" y="383.68" width="61.62" height="4.26" transform="translate(-43.95 63.24) rotate(-7.1)" style="fill:#ccc"/><rect x="451.5" y="509.82" width="43.17" height="4.26" transform="translate(-59.65 62.4) rotate(-7.1)" style="fill:#ccc"/><rect x="445.71" y="461.76" width="96.94" height="4.26" transform="translate(-53.55 64.64) rotate(-7.1)" style="fill:#ccc"/><rect x="446.68" y="469.88" width="86.34" height="4.26" transform="translate(-54.58 64.17) rotate(-7.1)" style="fill:#ccc"/><rect x="447.57" y="476.67" width="96.94" height="4.26" transform="translate(-55.38 64.98) rotate(-7.1)" style="fill:#ccc"/><rect x="448.69" y="487.12" width="48.59" height="4.26" transform="translate(-56.85 62.21) rotate(-7.1)" style="fill:#ccc"/><rect x="442.01" y="431.93" width="96.94" height="4.26" transform="translate(-49.89 63.95) rotate(-7.1)" style="fill:#ccc"/><rect x="442.93" y="439.39" width="96.94" height="4.26" transform="translate(-50.8 64.12) rotate(-7.1)" style="fill:#ccc"/><rect x="443.86" y="446.85" width="96.94" height="4.26" transform="translate(-51.72 64.3) rotate(-7.1)" style="fill:#ccc"/><rect x="444.92" y="456.46" width="62.24" height="4.26" transform="translate(-53.03 62.36) rotate(-7.1)" style="fill:#ccc"/><rect x="437.36" y="394.65" width="96.94" height="4.26" transform="translate(-45.32 63.09) rotate(-7.1)" style="fill:#ccc"/><rect x="438.28" y="402.1" width="96.94" height="4.26" transform="translate(-46.23 63.26) rotate(-7.1)" style="fill:#ccc"/><rect x="439.21" y="409.57" width="96.94" height="4.26" transform="translate(-47.15 63.44) rotate(-7.1)" style="fill:#ccc"/><rect x="440.33" y="420.01" width="48.59" height="4.26" transform="translate(-48.61 60.67) rotate(-7.1)" style="fill:#ccc"/><polygon points="532.19 377.17 550.34 374.91 529.98 359.4 532.19 377.17" style="fill:#ccc"/><polygon points="472.75 360.71 580.08 377.21 595.43 397.69 571.48 553.54 446.08 534.27 472.75 360.71" style="fill:#fff"/><rect x="495.67" y="442.16" width="5.64" height="61.62" transform="translate(-44.73 893.81) rotate(-81.26)" style="fill:#ccc"/><rect x="458.89" y="444.16" width="32.35" height="8.81" transform="translate(-39.6 851.07) rotate(-81.38)" style="fill:#22405a"/><rect x="476.5" y="452.06" width="20.19" height="8.81" transform="translate(-37.61 869.19) rotate(-81.38)" style="fill:#3d6a8c"/><rect x="492.11" y="459.05" width="13.28" height="8.8" transform="translate(-35.1 885.99) rotate(-81.26)" style="fill:#4f7899"/><rect x="503.12" y="458.11" width="19.54" height="8.7" transform="translate(-22.14 899.12) rotate(-81.26)" style="fill:#739cb9"/><rect x="519.06" y="462.99" width="14.03" height="8.8" transform="translate(-15.82 916.34) rotate(-81.26)" style="fill:#9fbfd3"/><rect x="529.7" y="358.69" width="4.27" height="61.7" transform="translate(67.01 857.01) rotate(-81.38)" style="fill:#ccc"/><rect x="528.55" y="349.92" width="4.26" height="103.58" transform="translate(53 865.18) rotate(-81.26)" style="fill:#ccc"/><rect x="527.41" y="357.34" width="4.26" height="103.58" transform="translate(44.69 870.35) rotate(-81.26)" style="fill:#ccc"/><rect x="526.26" y="364.77" width="4.26" height="103.58" transform="translate(36.38 875.51) rotate(-81.26)" style="fill:#ccc"/><rect x="497.64" y="393.86" width="4.27" height="48.65" transform="translate(11.44 849.67) rotate(-81.38)" style="fill:#ccc"/><polygon points="577.36 394.91 595.43 397.69 580.08 377.21 577.36 394.91" style="fill:#ccc"/><rect x="472.9" y="476.33" width="6.51" height="21.79" transform="translate(-77.76 883.81) rotate(-81.26)" style="fill:#6b2222"/><rect x="499.95" y="480.42" width="6.51" height="21.92" transform="translate(-58.93 914.07) rotate(-81.26)" style="fill:#deedf1"/><rect x="526.75" y="484.61" width="6.51" height="21.79" transform="translate(-40.28 944.06) rotate(-81.26)" style="fill:#739cb9"/><rect x="553.68" y="488.69" width="6.51" height="21.92" transform="translate(-21.53 974.2) rotate(-81.26)" style="fill:#deedf1"/><rect x="471.22" y="487.22" width="6.51" height="21.79" transform="translate(-89.95 891.39) rotate(-81.26)" style="fill:#995b5b"/><rect x="469.56" y="498.12" width="6.51" height="21.79" transform="translate(-102.13 898.99) rotate(-81.26)" style="fill:#d3aeae"/><rect x="467.9" y="508.89" width="6.51" height="21.79" transform="translate(-114.18 906.49) rotate(-81.26)" style="fill:#d3aeae"/><rect x="525.08" y="495.5" width="6.51" height="21.79" transform="translate(-52.46 951.64) rotate(-81.26)" style="fill:#3d6a8c"/><rect x="552" y="499.57" width="6.51" height="21.92" transform="translate(-33.72 981.77) rotate(-81.26)" style="fill:#deedf1"/><rect x="550.33" y="510.47" width="6.51" height="21.92" transform="translate(-45.9 989.36) rotate(-81.26)" style="fill:#deedf1"/><path d="M430.76,381H536.47a10.45,10.45,0,0,1,10.4,10.4v32.94c0,2.13-.38,3.13-2,3.76l-3.76,1.5c-1.88.75-2.88,2.5-2.88,5.13v30.18c0,2.63,1,4.38,2.88,5.13l3.76,1.5c1.75,0.63,2,1.63,2,3.76v74.52a10.45,10.45,0,0,1-10.4,10.4H430.76a10.45,10.45,0,0,1-10.4-10.4V391.3A10.51,10.51,0,0,1,430.76,381Z" style="fill:#e8c574"/><polygon points="357.67 436.95 448.24 423.04 465.78 435.64 485.98 567.16 380.16 583.41 357.67 436.95" style="fill:#fff"/><rect x="380.8" y="518.39" width="52" height="4.76" transform="translate(-74.33 67.78) rotate(-8.73)" style="fill:#ccc"/><rect x="378.62" y="494.69" width="7.43" height="27.27" transform="translate(-72.72 63.92) rotate(-8.73)" style="fill:#22405a"/><rect x="389.92" y="503.28" width="7.43" height="17.02" transform="translate(-73.12 65.67) rotate(-8.73)" style="fill:#3d6a8c"/><rect x="400.87" y="507.43" width="7.43" height="11.2" transform="translate(-73.18 67.35) rotate(-8.73)" style="fill:#4f7899"/><rect x="412.04" y="500.41" width="7.34" height="16.49" transform="translate(-72.39 68.99) rotate(-8.73)" style="fill:#739cb9"/><rect x="423.87" y="503.37" width="7.43" height="11.84" transform="translate(-72.35 70.8) rotate(-8.73)" style="fill:#9fbfd3"/><rect x="387.22" y="444.58" width="52" height="3.59" transform="translate(-62.96 67.89) rotate(-8.73)" style="fill:#ccc"/><rect x="370.94" y="453.45" width="87.4" height="3.59" transform="translate(-64.29 68.21) rotate(-8.73)" style="fill:#ccc"/><rect x="371.9" y="459.72" width="87.4" height="3.59" transform="translate(-65.23 68.43) rotate(-8.73)" style="fill:#ccc"/><rect x="372.86" y="465.99" width="87.4" height="3.59" transform="translate(-66.17 68.64) rotate(-8.73)" style="fill:#ccc"/><rect x="374.09" y="475.78" width="41.01" height="3.59" transform="translate(-67.91 65.42) rotate(-8.73)" style="fill:#ccc"/><polygon points="450.53 437.98 465.78 435.64 448.24 423.04 450.53 437.98" style="fill:#ccc"/><rect x="383.23" y="535.15" width="18.39" height="5.5" transform="translate(-77.09 65.79) rotate(-8.73)" style="fill:#6b2222"/><rect x="406" y="531.64" width="18.5" height="5.5" transform="translate(-76.3 69.22) rotate(-8.73)" style="fill:#deedf1"/><rect x="428.67" y="528.16" width="18.39" height="5.5" transform="matrix(0.99, -0.15, 0.15, 0.99, -75.51, 72.61)" style="fill:#739cb9"/><rect x="451.34" y="524.67" width="18.5" height="5.5" transform="translate(-74.72 76.02) rotate(-8.73)" style="fill:#deedf1"/><rect x="384.63" y="544.34" width="18.39" height="5.5" transform="translate(-78.47 66.11) rotate(-8.73)" style="fill:#995b5b"/><rect x="386.04" y="553.54" width="18.39" height="5.5" transform="matrix(0.99, -0.15, 0.15, 0.99, -79.85, 66.43)" style="fill:#d3aeae"/><rect x="387.45" y="562.61" width="18.39" height="5.5" transform="translate(-81.21 66.75) rotate(-8.73)" style="fill:#d3aeae"/><rect x="430.08" y="537.36" width="18.39" height="5.5" transform="translate(-76.89 72.93) rotate(-8.73)" style="fill:#3d6a8c"/><rect x="452.75" y="533.87" width="18.5" height="5.5" transform="translate(-76.1 76.34) rotate(-8.73)" style="fill:#deedf1"/><rect x="454.15" y="543.06" width="18.5" height="5.5" transform="translate(-77.47 76.66) rotate(-8.73)" style="fill:#deedf1"/><circle cx="709.55" cy="599.67" r="28.55" style="fill:#9fbfd3"/><circle cx="579.47" cy="599.63" r="19.28" style="fill:#9fbfd3"/><path d="M777,529.77a4.67,4.67,0,0,1-.09,6.6h0L624,684.66a4.67,4.67,0,0,1-6.6-.09h0l-88.34-91.07a4.67,4.67,0,0,1,.09-6.6h0L682,438.6a4.67,4.67,0,0,1,6.6.09h0Z" style="fill:#454547"/><rect x="556.07" y="508.38" width="196.62" height="109.23" transform="translate(-207.31 614.54) rotate(-44.13)" style="fill:#dfedf7"/><path d="M707.64,555.78a5.14,5.14,0,0,0-7.27-.11h0a5.14,5.14,0,0,0-.11,7.27h0l20.58,21.22a5.14,5.14,0,0,0,7.27.11h0a5.14,5.14,0,0,0,.11-7.27h0Z" style="fill:#f2cea9"/><path d="M700.26,562.94a5.14,5.14,0,0,0-7.27-.11h0a5.14,5.14,0,0,0-.11,7.27h0l20.58,21.22a5.14,5.14,0,0,0,7.27.11h0a5.14,5.14,0,0,0,.11-7.27h0Z" style="fill:#f2cea9"/><path d="M692.88,570.1a5.14,5.14,0,0,0-7.27-.11h0a5.14,5.14,0,0,0-.11,7.27h0l20.58,21.22a5.14,5.14,0,0,0,7.27.11h0a5.14,5.14,0,0,0,.11-7.27h0Z" style="fill:#f2cea9"/><path d="M685.5,577.26a5.14,5.14,0,0,0-7.27-.11h0a5.14,5.14,0,0,0-.11,7.27h0l20.58,21.22a5.14,5.14,0,0,0,7.27.11h0a5.14,5.14,0,0,0,.11-7.27h0Z" style="fill:#f2cea9"/><path d="M713.35,633.9a5.74,5.74,0,0,0,7.43-3.25h0a5.73,5.73,0,0,0-3.25-7.42h0L668.21,606.9a5.74,5.74,0,0,0-7.43,3.25h0a5.74,5.74,0,0,0,3.25,7.43Z" style="fill:#f2cea9"/><path d="M668.29,617.2l-2.37-.93c-2.19-.85-4.29-3-3.44-5.23l0.15-.38c0.85-2.18,3.89-2.36,6.07-1.51l2.37,0.93Z" style="fill:#ffeede"/><path d="M689.51,612.62a5.74,5.74,0,0,0,8.09.57h0a5.73,5.73,0,0,0,.58-8.08h0l-36.1-37.35a5.74,5.74,0,0,0-8.09-.57h0a5.74,5.74,0,0,0-.57,8.09Z" style="fill:#f2cea9"/><path d="M657.36,576.91L655.69,575c-1.54-1.77-2.39-4.69-.61-6.23l0.31-.27c1.77-1.54,4.54-.29,6.08,1.48l1.66,1.92Z" style="fill:#ffeede"/><path d="M717.87,566.33c-4.17-4.3-10.47-5-14.08-1.45L679,588.9c-3.61,3.5-3.15,9.82,1,14.12l27,27.79c4.17,4.3,10.47,5,14.08,1.45l24.76-24c3.61-3.5,3.15-9.82-1-14.12Z" style="fill:#f2cea9"/><rect x="723.15" y="613.29" width="35.98" height="20.56" transform="translate(-225 692.04) rotate(-44.13)" style="fill:#f2cea9"/><polygon points="899.25 742.53 901.4 822.24 735.22 654.33 773.96 616.74 899.25 742.53" style="fill:#22405a"/><rect x="727.67" y="629.35" width="47.55" height="7.71" transform="translate(-228.81 701.94) rotate(-44.13)" style="fill:#fff"/><path d="M771.65,343.94a5.63,5.63,0,0,0,1.71-7.78h0a5.63,5.63,0,0,0-7.78-1.7h0l-41.41,29.83a5.64,5.64,0,0,0-1.7,7.79h0a5.64,5.64,0,0,0,7.79,1.7Z" style="fill:#f2cea9"/><path d="M712,319.14c-5.13,2.87-7.48,8.45-5.23,12.47l15.71,28.09c2.24,4,8.23,4.94,13.36,2.07L770,342.68c5.13-2.87,7.48-8.45,5.23-12.47l-15.71-28.09c-2.24-4-8.23-4.94-13.36-2.07Z" style="fill:#f2cea9"/><rect x="762.41" y="293.87" width="20.56" height="37.27" transform="translate(-54.25 416.82) rotate(-29.21)" style="fill:#f2cea9"/><path d="M748.09,297.51a2.59,2.59,0,0,1,3.52,1l21.93,39.22a2.59,2.59,0,0,1-1,3.53h0l-75.12,42a2.59,2.59,0,0,1-3.52-1L672,343a2.59,2.59,0,0,1,1-3.53h0Z" style="fill:#454547"/><rect x="684.13" y="321.35" width="74.53" height="41.12" transform="translate(-75.12 395.53) rotate(-29.21)" style="fill:#dfedf7"/><polygon points="959.84 182.69 1024.06 208.97 799.15 327.56 772.89 280.25 959.84 182.69" style="fill:#9fbfd3"/><rect x="778.92" y="283.08" width="7.71" height="47.55" transform="translate(-50.21 421.02) rotate(-29.21)" style="fill:#fff"/><path d="M738.46,316a5,5,0,0,0,7,.37h0a4.94,4.94,0,0,0,1-6.91l-11.84-14.63a4.94,4.94,0,0,0-7-.39l0,0h0a4.94,4.94,0,0,0-1,6.91Z" style="fill:#f2cea9"/><path d="M739.07,314.74c1,1.26,3.14,1.24,4.69,0l0.33-.27c1.55-1.28,2-3.34.93-4.59l-0.75-.91c-1-1.26-3.13-1.24-4.69,0l-0.33.27c-1.55,1.28-2,3.33-.93,4.59Z" style="fill:#ffeede"/><path d="M729.82,323a4.94,4.94,0,0,0,7,.39l0,0h0a4.94,4.94,0,0,0,1-6.91L726,301.78a5,5,0,0,0-7-.37h0a4.94,4.94,0,0,0-1,6.91Z" style="fill:#f2cea9"/><path d="M730.43,321.67c1,1.26,3.14,1.24,4.69,0l0.33-.27c1.55-1.28,2-3.34.93-4.59l-0.75-.92c-1-1.26-3.13-1.24-4.69,0l-0.33.27c-1.55,1.28-2,3.33-.93,4.59Z" style="fill:#ffeede"/><path d="M721.5,329.62a5,5,0,0,0,7,.37h0a5,5,0,0,0,1-6.91l-11.84-14.63a4.94,4.94,0,0,0-7-.39l0,0h0a4.94,4.94,0,0,0-1,6.91Z" style="fill:#f2cea9"/><path d="M722.12,328.35c1,1.26,3.14,1.24,4.69,0l0.33-.27c1.55-1.28,2-3.34.93-4.59l-0.75-.91c-1-1.26-3.14-1.24-4.69,0l-0.33.27c-1.55,1.28-2,3.33-.93,4.59Z" style="fill:#ffeede"/><path d="M712.72,336.38a4.94,4.94,0,0,0,7,.39l0,0h0a5,5,0,0,0,1-6.91l-11.84-14.63a4.94,4.94,0,0,0-7-.39l0,0h0a4.94,4.94,0,0,0-1,6.91Z" style="fill:#f2cea9"/><path d="M713.34,335.11c1,1.26,3.14,1.24,4.69,0l0.33-.27c1.55-1.28,2-3.33.93-4.59l-0.75-.91c-1-1.26-3.14-1.24-4.69,0l-0.33.27c-1.55,1.28-2,3.34-.93,4.59Z" style="fill:#ffeede"/><path d="M345.15,585a5.63,5.63,0,0,0,2,7.7h0a5.63,5.63,0,0,0,7.7-2l23.26-45.42a5.64,5.64,0,0,0-2-7.71h0a5.64,5.64,0,0,0-7.7,2Z" style="fill:#f2cea9"/><path d="M409.51,579.9c3.26-4.89,2.8-10.93-1-13.48l-26.78-17.84c-3.83-2.55-9.57-.65-12.83,4.25l-21.68,32.54c-3.26,4.89-2.8,10.93,1,13.48L375,616.68c3.83,2.55,9.57.65,12.84-4.25Z" style="fill:#f2cea9"/><rect x="348.3" y="594.79" width="20.56" height="37.27" transform="translate(-350.74 571.76) rotate(-56.33)" style="fill:#f2cea9"/><path d="M387.28,615.58a2.59,2.59,0,0,1-3.59.72l-37.4-24.91a2.59,2.59,0,0,1-.72-3.59l47.72-71.62a2.59,2.59,0,0,1,3.59-.72l37.4,24.92A2.59,2.59,0,0,1,435,544l0,0Z" style="fill:#454547"/><rect x="353.55" y="543.39" width="74.53" height="41.12" transform="translate(-295.21 576.43) rotate(-56.32)" style="fill:#dfedf7"/><polygon points="203.59 907.03 161.91 872.12 327.69 612.18 372.4 642.35 203.59 907.03" style="fill:#22405a"/><rect x="348.31" y="599.37" width="7.71" height="47.55" transform="translate(-361.68 570.63) rotate(-56.32)" style="fill:#fff"/><path d="M387.43,594.72a5,5,0,0,0-6.37,2.85h0a5,5,0,0,0,2.3,6.59l17.21,7.62a4.94,4.94,0,0,0,6.37-2.85h0a4.94,4.94,0,0,0-2.29-6.59Z" style="fill:#f2cea9"/><path d="M387.46,596.14c-1.5-.65-3.35.33-4.15,2.17l-0.17.4c-0.8,1.84-.23,3.87,1.26,4.51l1.08,0.47c1.5,0.65,3.35-.33,4.15-2.17l0.17-.4c0.8-1.85.23-3.87-1.26-4.51Z" style="fill:#ffeede"/><path d="M392,584.61a4.94,4.94,0,0,0-6.37,2.84h0a4.94,4.94,0,0,0,2.29,6.59l17.2,7.62a5,5,0,0,0,6.37-2.85h0a4.94,4.94,0,0,0-2.29-6.59Z" style="fill:#f2cea9"/><path d="M392,586c-1.49-.65-3.36.33-4.15,2.17l-0.17.39c-0.8,1.84-.23,3.87,1.26,4.51l1.09,0.47c1.5,0.65,3.35-.33,4.15-2.17l0.17-.39c0.8-1.84.23-3.87-1.26-4.51Z" style="fill:#ffeede"/><path d="M396.32,574.88a5,5,0,0,0-6.37,2.85h0a5,5,0,0,0,2.3,6.59l17.21,7.62a5,5,0,0,0,6.37-2.85h0a4.94,4.94,0,0,0-2.29-6.59Z" style="fill:#f2cea9"/><path d="M396.35,576.29c-1.5-.65-3.36.33-4.16,2.17l-0.17.39c-0.8,1.85-.23,3.87,1.26,4.51l1.08,0.47c1.5,0.65,3.36-.33,4.16-2.17l0.17-.39c0.8-1.84.23-3.86-1.26-4.51Z" style="fill:#ffeede"/><path d="M401,564.86a5,5,0,0,0-6.37,2.85h0a5,5,0,0,0,2.3,6.59l17.2,7.62a4.94,4.94,0,0,0,6.37-2.85h0a4.94,4.94,0,0,0-2.29-6.59Z" style="fill:#f2cea9"/><path d="M401.08,566.27c-1.5-.65-3.36.32-4.15,2.17l-0.17.39c-0.8,1.85-.23,3.87,1.26,4.51l1.09,0.47c1.5,0.65,3.35-.33,4.15-2.17l0.17-.39c0.8-1.85.23-3.87-1.26-4.51Z" style="fill:#ffeede"/><path d="M364.82,285.61L180.66,492.08a6.47,6.47,0,0,1-9.11.52L37.63,373.16a6.48,6.48,0,0,1-.52-9.11L221.27,157.58a6.47,6.47,0,0,1,9.11-.52L364.3,276.5A6.47,6.47,0,0,1,364.82,285.61Z" style="fill:#454547"/><path d="M356.45,295l-10.67,12-6.84-6.1a1.51,1.51,0,0,1-.12-2.13l8.67-9.72a1.51,1.51,0,0,1,2.13-.12Z" style="fill:url(#Unbenannter_Verlauf)"/><path d="M199.7,470.74l-10.68,12-6.84-6.1a1.51,1.51,0,0,1-.12-2.13l8.67-9.72a1.51,1.51,0,0,1,2.13-.12Z" style="fill:url(#Unbenannter_Verlauf_2)"/><path d="M440.47,317.54L211.76,567.12c-5.28,5.92-9.64,5.25-11.29-.57l-21.16-68L371.57,283l61.88,22.55C443.62,307.22,446.29,311,440.47,317.54Z" style="fill:#454547"/><polygon points="208.44 551.04 189.89 495.42 369.54 294.01 424.24 315.93 208.44 551.04" style="fill:#dfedf7"/><path d="M361.14,302.22l-7.64,8.57a1.33,1.33,0,0,1-1.88.11h0l-10.13-9a1.33,1.33,0,0,1-.11-1.88h0l7.64-8.57a1.33,1.33,0,0,1,1.88-.11h0l10.13,9a1.33,1.33,0,0,1,.11,1.88h0Z" style="fill:url(#Unbenannter_Verlauf_3)"/><path d="M204.38,478l-7.64,8.57a1.33,1.33,0,0,1-1.88.11h0l-10.13-9a1.33,1.33,0,0,1-.11-1.87l7.64-8.57a1.33,1.33,0,0,1,1.88-.11h0l10.13,9A1.33,1.33,0,0,1,204.38,478Z" style="fill:url(#Unbenannter_Verlauf_4)"/><path d="M162.32,458.63l6-6.67a1.84,1.84,0,0,1,2.6-.15l4.94,4.41a1.85,1.85,0,0,1,.15,2.61h0L170,465.49a1.85,1.85,0,0,1-2.61.15h0l-5-4.42A1.85,1.85,0,0,1,162.32,458.63Z" style="fill:#ccc"/><path d="M166.26,450.68l-5.4,6.06a2.26,2.26,0,0,1-3.18.18l-6.71-6a2.26,2.26,0,0,1-.18-3.18l5.4-6.06a2.26,2.26,0,0,1,3.18-.19l6.71,6A2.26,2.26,0,0,1,166.26,450.68Z" style="fill:#ccc"/><path d="M154.44,440.13l-5.4,6.06a2.26,2.26,0,0,1-3.18.18l-6.71-6a2.26,2.26,0,0,1-.18-3.18l5.4-6.06a2.26,2.26,0,0,1,3.19-.18l6.71,6A2.26,2.26,0,0,1,154.44,440.13Z" style="fill:#ccc"/><path d="M142.62,429.59l-5.4,6.06a2.26,2.26,0,0,1-3.19.18l-6.71-6a2.26,2.26,0,0,1-.18-3.18l5.4-6.06a2.26,2.26,0,0,1,3.18-.18l6.71,6A2.26,2.26,0,0,1,142.62,429.59Z" style="fill:#ccc"/><path d="M130.8,419l-5.4,6.06a2.26,2.26,0,0,1-3.18.18l-6.71-6a2.26,2.26,0,0,1-.18-3.18l5.4-6.06a2.26,2.26,0,0,1,3.18-.18l6.71,6A2.26,2.26,0,0,1,130.8,419Z" style="fill:#ccc"/><path d="M119,408.5l-5.4,6.06a2.26,2.26,0,0,1-3.19.18l-6.71-6a2.26,2.26,0,0,1-.18-3.18l5.4-6.06a2.26,2.26,0,0,1,3.18-.18l6.71,6A2.26,2.26,0,0,1,119,408.5Z" style="fill:#ccc"/><path d="M186.49,447l-5.95,6.67a1.85,1.85,0,0,1-2.6.15l-5-4.42a1.85,1.85,0,0,1-.15-2.61l5.95-6.67a1.85,1.85,0,0,1,2.6-.15l5,4.42A1.85,1.85,0,0,1,186.49,447Z" style="fill:#ccc"/><path d="M186.37,428.14l-14.9,16.7a2.42,2.42,0,0,1-3.41.19l-6.48-5.78a2.42,2.42,0,0,1-.2-3.41l14.9-16.7a2.42,2.42,0,0,1,3.41-.2l6.48,5.78a2.42,2.42,0,0,1,.2,3.42h0Z" style="fill:#ccc"/><path d="M167.71,425.26l-8.06,9a2.42,2.42,0,0,1-3.4.2l-6.48-5.78a2.42,2.42,0,0,1-.19-3.41l8.06-9a2.42,2.42,0,0,1,3.41-.19l6.48,5.78A2.42,2.42,0,0,1,167.71,425.26Z" style="fill:#ccc"/><path d="M163.91,405.72l-16.08,18a2.42,2.42,0,0,1-3.41.19l-6.48-5.78a2.42,2.42,0,0,1-.2-3.41l16.08-18a2.42,2.42,0,0,1,3.41-.19l6.48,5.78A2.42,2.42,0,0,1,163.91,405.72Z" style="fill:#ccc"/><path d="M141.3,407.27l-5.4,6.06a2.26,2.26,0,0,1-3.19.18l-6.71-6a2.26,2.26,0,0,1-.18-3.18l5.4-6.06a2.26,2.26,0,0,1,3.18-.18l6.71,6A2.26,2.26,0,0,1,141.3,407.27Z" style="fill:#ccc"/><path d="M129.48,396.72l-5.4,6.06a2.26,2.26,0,0,1-3.19.18l-6.71-6a2.26,2.26,0,0,1-.18-3.18l5.4-6.06a2.26,2.26,0,0,1,3.18-.18l6.71,6A2.26,2.26,0,0,1,129.48,396.72Z" style="fill:#ccc"/><path d="M196.2,436.15l-5.15,5.77a1.85,1.85,0,0,1-2.6.15l-5-4.42a1.85,1.85,0,0,1-.15-2.61l5.15-5.77a1.85,1.85,0,0,1,2.61-.15l5,4.42A1.85,1.85,0,0,1,196.2,436.15Z" style="fill:#ccc"/><path d="M193.21,424l5.14-5.77A1.85,1.85,0,0,1,201,418h0l5,4.42a1.84,1.84,0,0,1,.15,2.6l-5.14,5.77a1.85,1.85,0,0,1-2.61.15h0l-5-4.42A1.84,1.84,0,0,1,193.21,424Z" style="fill:#ccc"/><path d="M203.08,412.89l5.15-5.77a1.84,1.84,0,0,1,2.6-.15l5,4.42a1.85,1.85,0,0,1,.15,2.61h0l-5.15,5.77a1.85,1.85,0,0,1-2.61.15h0l-5-4.42a1.85,1.85,0,0,1-.15-2.61h0Z" style="fill:#ccc"/><path d="M225.79,403l-5.15,5.77a1.85,1.85,0,0,1-2.61.15l-5-4.42a1.85,1.85,0,0,1-.15-2.61l5.14-5.77a1.85,1.85,0,0,1,2.61-.15l5,4.42A1.85,1.85,0,0,1,225.79,403Z" style="fill:#ccc"/><path d="M222.79,390.82l5.15-5.77a1.85,1.85,0,0,1,2.61-.15h0l5,4.42a1.85,1.85,0,0,1,.15,2.61h0l-5.15,5.77a1.84,1.84,0,0,1-2.6.15l-5-4.46a1.84,1.84,0,0,1-.15-2.6Z" style="fill:#ccc"/><path d="M245.51,380.86l-5.14,5.77a1.85,1.85,0,0,1-2.61.15l-5-4.42a1.85,1.85,0,0,1-.15-2.61L237.8,374a1.85,1.85,0,0,1,2.6-.15l5,4.42A1.85,1.85,0,0,1,245.51,380.86Z" style="fill:#ccc"/><path d="M255.37,369.8l-5.14,5.77a1.85,1.85,0,0,1-2.61.15l-5-4.42a1.85,1.85,0,0,1-.15-2.6l5.14-5.77a1.85,1.85,0,0,1,2.61-.15l5,4.42A1.85,1.85,0,0,1,255.37,369.8Z" style="fill:#ccc"/><path d="M252.36,357.62l5.15-5.78a1.84,1.84,0,0,1,2.6-.15l5,4.42a1.85,1.85,0,0,1,.15,2.61h0l-5.15,5.77a1.84,1.84,0,0,1-2.6.15l-5-4.42a1.84,1.84,0,0,1-.15-2.6h0Z" style="fill:#ccc"/><path d="M275.1,347.68l-5.1,5.77a1.85,1.85,0,0,1-2.61.15l-5-4.42a1.85,1.85,0,0,1-.15-2.61l5.14-5.77a1.85,1.85,0,0,1,2.61-.15l5,4.42A1.85,1.85,0,0,1,275.1,347.68Z" style="fill:#ccc"/><path d="M272.11,335.55l5.15-5.77a1.84,1.84,0,0,1,2.6-.15l5,4.42a1.85,1.85,0,0,1,.15,2.61h0l-5.15,5.77a1.84,1.84,0,0,1-2.6.15l-5-4.42a1.85,1.85,0,0,1-.15-2.61h0Z" style="fill:#ccc"/><path d="M294.83,325.57l-5.14,5.77a1.85,1.85,0,0,1-2.61.15l-5-4.42a1.85,1.85,0,0,1-.15-2.6l5.15-5.77a1.85,1.85,0,0,1,2.61-.15l5,4.42A1.85,1.85,0,0,1,294.83,325.57Z" style="fill:#ccc"/><path d="M304.69,314.51l-5.15,5.77a1.85,1.85,0,0,1-2.6.15L292,316a1.85,1.85,0,0,1-.15-2.6l5.15-5.77a1.85,1.85,0,0,1,2.6-.15l5,4.42A1.85,1.85,0,0,1,304.69,314.51Z" style="fill:#ccc"/><path d="M314.56,303.45l-5.15,5.77a1.85,1.85,0,0,1-2.61.15l-5-4.42a1.85,1.85,0,0,1-.15-2.61l5.14-5.77a1.85,1.85,0,0,1,2.61-.15l5,4.42A1.85,1.85,0,0,1,314.56,303.45Z" style="fill:#ccc"/><rect x="312.27" y="286.63" width="11.42" height="10.33" rx="1.85" ry="1.85" transform="translate(-111.44 334.88) rotate(-48.27)" style="fill:#ccc"/><path d="M335.5,280l-6,6.67a1.85,1.85,0,0,1-2.61.15l-5-4.42a1.85,1.85,0,0,1-.15-2.6l6-6.67a1.85,1.85,0,0,1,2.61-.15l5,4.42A1.85,1.85,0,0,1,335.5,280Z" style="fill:#ccc"/><path d="M197,416.21l-5.3,5.94a2.22,2.22,0,0,1-3.13.18l-6.77-6a2.22,2.22,0,0,1-.17-3.13l5.3-6a2.22,2.22,0,0,1,3.12-.18l6.78,6a2.22,2.22,0,0,1,.17,3.13h0Z" style="fill:#ccc"/><path d="M207.71,404.21l-5.3,5.94a2.22,2.22,0,0,1-3.13.18l-6.78-6a2.22,2.22,0,0,1-.18-3.13l5.3-5.94a2.22,2.22,0,0,1,3.12-.18l6.78,6A2.22,2.22,0,0,1,207.71,404.21Z" style="fill:#ccc"/><path d="M218.41,392.21l-5.3,5.94a2.22,2.22,0,0,1-3.13.18l-6.78-6a2.22,2.22,0,0,1-.18-3.13l5.3-5.94a2.22,2.22,0,0,1,3.13-.18l6.78,6A2.22,2.22,0,0,1,218.41,392.21Z" style="fill:#ccc"/><path d="M229.11,380.22l-5.3,5.94a2.22,2.22,0,0,1-3.13.18l-6.77-6a2.22,2.22,0,0,1-.18-3.13l5.3-5.94a2.22,2.22,0,0,1,3.12-.18l6.77,6A2.22,2.22,0,0,1,229.11,380.22Z" style="fill:#ccc"/><path d="M239.81,368.22l-5.3,6a2.22,2.22,0,0,1-3.12.18l-6.78-6a2.22,2.22,0,0,1-.18-3.12l5.3-6a2.22,2.22,0,0,1,3.12-.18l6.78,6A2.22,2.22,0,0,1,239.81,368.22Z" style="fill:#ccc"/><path d="M250.51,356.22l-5.3,5.94a2.22,2.22,0,0,1-3.13.18l-6.78-6a2.22,2.22,0,0,1-.18-3.12l5.3-6a2.22,2.22,0,0,1,3.12-.18l6.78,6A2.22,2.22,0,0,1,250.51,356.22Z" style="fill:#ccc"/><rect x="247.33" y="335.92" width="12.39" height="13.5" rx="2.21" ry="2.21" transform="translate(-170.95 303.78) rotate(-48.27)" style="fill:#ccc"/><path d="M271.91,332.23l-5.3,5.94a2.22,2.22,0,0,1-3.12.18l-6.78-6a2.22,2.22,0,0,1-.18-3.12l5.3-5.94a2.22,2.22,0,0,1,3.12-.18l6.78,6A2.22,2.22,0,0,1,271.91,332.23Z" style="fill:#ccc"/><path d="M282.61,320.23l-5.3,5.94a2.22,2.22,0,0,1-3.13.18l-6.77-6a2.22,2.22,0,0,1-.18-3.12l5.3-5.94a2.22,2.22,0,0,1,3.12-.18l6.77,6A2.22,2.22,0,0,1,282.61,320.23Z" style="fill:#ccc"/><rect x="279.43" y="299.99" width="12.39" height="13.5" rx="2.21" ry="2.21" transform="translate(-133.41 315.73) rotate(-48.27)" style="fill:#ccc"/><path d="M304,296.23l-5.3,5.94a2.22,2.22,0,0,1-3.13.18l-6.78-6a2.22,2.22,0,0,1-.18-3.12l5.3-6a2.22,2.22,0,0,1,3.12-.18l6.78,6A2.22,2.22,0,0,1,304,296.23Z" style="fill:#ccc"/><path d="M314.72,284.24l-5.3,5.94a2.22,2.22,0,0,1-3.13.18l-6.77-6a2.22,2.22,0,0,1-.18-3.13l5.3-5.94a2.22,2.22,0,0,1,3.12-.18l6.78,6A2.22,2.22,0,0,1,314.72,284.24Z" style="fill:#ccc"/><path d="M325.77,271.85l-5.4,6.06a2.26,2.26,0,0,1-3.19.18l-6.71-6a2.26,2.26,0,0,1-.18-3.18l5.4-6.06a2.26,2.26,0,0,1,3.18-.18l6.71,6A2.26,2.26,0,0,1,325.77,271.85Z" style="fill:#ccc"/><path d="M313.84,261.42l-11.11,12.46a2.42,2.42,0,0,1-3.41.2l-6.48-5.78a2.42,2.42,0,0,1-.2-3.41l11.12-12.46a2.42,2.42,0,0,1,3.41-.19l6.48,5.78A2.42,2.42,0,0,1,313.84,261.42Z" style="fill:#ccc"/><path d="M302,250.87l-13.22,14.82a2.42,2.42,0,0,1-3.41.19l-6.48-5.78a2.42,2.42,0,0,1-.19-3.41l13.22-14.82a2.42,2.42,0,0,1,3.41-.19l6.48,5.78A2.42,2.42,0,0,1,302,250.87Z" style="fill:#ccc"/><path d="M290.2,240.33l-19,21.24a2.42,2.42,0,0,1-3.4.2L261.37,256a2.42,2.42,0,0,1-.19-3.41l19-21.24a2.42,2.42,0,0,1,3.41-.2l6.48,5.78A2.42,2.42,0,0,1,290.2,240.33Z" style="fill:#ccc"/><path d="M278.38,229.78l-7.87,8.82a2.42,2.42,0,0,1-3.41.19L260.63,233a2.42,2.42,0,0,1-.19-3.41l7.87-8.82a2.42,2.42,0,0,1,3.41-.19l6.48,5.78a2.42,2.42,0,0,1,.18,3.42h0Z" style="fill:#ccc"/><rect x="283.69" y="270.88" width="13.27" height="13.51" rx="2.37" ry="2.37" transform="translate(-110.12 309.5) rotate(-48.27)" style="fill:#ccc"/><rect x="272.8" y="283.1" width="13.27" height="13.51" rx="2.37" ry="2.37" transform="translate(-122.88 305.46) rotate(-48.27)" style="fill:#ccc"/><path d="M276.4,303.39l-5.68,6.37a2.38,2.38,0,0,1-3.35.19l-6.54-5.83a2.38,2.38,0,0,1-.19-3.35l5.68-6.37a2.38,2.38,0,0,1,3.35-.19l6.54,5.84A2.38,2.38,0,0,1,276.4,303.39Z" style="fill:#ccc"/><rect x="250.98" y="307.54" width="13.27" height="13.5" rx="2.37" ry="2.37" transform="translate(-148.41 297.35) rotate(-48.27)" style="fill:#ccc"/><rect x="240.09" y="319.74" width="13.27" height="13.51" rx="2.37" ry="2.37" transform="translate(-161.16 293.3) rotate(-48.27)" style="fill:#ccc"/><path d="M243.7,340.06l-5.7,6.37a2.38,2.38,0,0,1-3.35.19l-6.54-5.83a2.38,2.38,0,0,1-.19-3.35l5.68-6.37a2.38,2.38,0,0,1,3.35-.19l6.54,5.83a2.37,2.37,0,0,1,.21,3.34h0Z" style="fill:#ccc"/><rect x="218.28" y="344.24" width="13.27" height="13.51" rx="2.37" ry="2.37" transform="translate(-186.74 285.22) rotate(-48.27)" style="fill:#ccc"/><rect x="207.39" y="356.41" width="13.27" height="13.51" rx="2.37" ry="2.37" transform="translate(-199.46 281.16) rotate(-48.27)" style="fill:#ccc"/><rect x="196.48" y="368.66" width="13.27" height="13.51" rx="2.37" ry="2.37" transform="translate(-212.25 277.11) rotate(-48.27)" style="fill:#ccc"/><path d="M200.09,389l-5.68,6.37a2.37,2.37,0,0,1-3.35.19h0l-6.54-5.83a2.38,2.38,0,0,1-.19-3.35L190,380a2.38,2.38,0,0,1,3.35-.19l6.54,5.83A2.38,2.38,0,0,1,200.09,389Z" style="fill:#ccc"/><rect x="174.67" y="393.14" width="13.27" height="13.51" rx="2.37" ry="2.37" transform="translate(-237.81 269.02) rotate(-48.27)" style="fill:#ccc"/><path d="M178.29,413.4l-5.68,6.36a2.37,2.37,0,0,1-3.35.19h0l-6.54-5.83a2.37,2.37,0,0,1-.19-3.35h0l5.68-6.37a2.38,2.38,0,0,1,3.35-.19L178.1,410a2.37,2.37,0,0,1,.19,3.35h0Z" style="fill:#ccc"/><path d="M283.35,271.81l-5.68,6.36a2.38,2.38,0,0,1-3.35.19l-6.54-5.83a2.38,2.38,0,0,1-.19-3.35l5.68-6.36a2.38,2.38,0,0,1,3.35-.19l6.54,5.83A2.38,2.38,0,0,1,283.35,271.81Z" style="fill:#ccc"/><path d="M272.45,284l-5.68,6.37a2.38,2.38,0,0,1-3.35.19l-6.54-5.83a2.38,2.38,0,0,1-.19-3.35l5.68-6.37a2.38,2.38,0,0,1,3.35-.19l6.54,5.83A2.38,2.38,0,0,1,272.45,284Z" style="fill:#ccc"/><path d="M261.55,296.25l-5.68,6.36a2.38,2.38,0,0,1-3.35.19L246,297a2.38,2.38,0,0,1-.19-3.35l5.68-6.37a2.38,2.38,0,0,1,3.35-.19l6.54,5.83A2.38,2.38,0,0,1,261.55,296.25Z" style="fill:#ccc"/><rect x="236.14" y="300.39" width="13.27" height="13.51" rx="2.37" ry="2.37" transform="translate(-148.04 283.88) rotate(-48.27)" style="fill:#ccc"/><rect x="225.23" y="312.63" width="13.27" height="13.51" rx="2.37" ry="2.37" transform="translate(-160.82 279.83) rotate(-48.27)" style="fill:#ccc"/><rect x="214.34" y="324.81" width="13.27" height="13.51" rx="2.37" ry="2.37" transform="translate(-173.56 275.78) rotate(-48.27)" style="fill:#ccc"/><rect x="203.43" y="337.04" width="13.27" height="13.51" rx="2.37" ry="2.37" transform="translate(-186.34 271.8) rotate(-48.28)" style="fill:#ccc"/><rect x="192.54" y="349.27" width="13.27" height="13.51" rx="2.37" ry="2.37" transform="translate(-199.11 267.76) rotate(-48.28)" style="fill:#ccc"/><path d="M196.14,369.59L190.46,376a2.38,2.38,0,0,1-3.35.19l-6.54-5.83a2.38,2.38,0,0,1-.19-3.35l5.68-6.37a2.38,2.38,0,0,1,3.35-.19l6.54,5.83A2.38,2.38,0,0,1,196.14,369.59Z" style="fill:#ccc"/><rect x="170.73" y="373.71" width="13.27" height="13.51" rx="2.37" ry="2.37" transform="translate(-224.63 259.58) rotate(-48.27)" style="fill:#ccc"/><path d="M174.34,394l-5.68,6.37a2.38,2.38,0,0,1-3.35.19l-6.54-5.83a2.38,2.38,0,0,1-.19-3.34l5.68-6.37a2.38,2.38,0,0,1,3.35-.19l6.54,5.83A2.38,2.38,0,0,1,174.34,394Z" style="fill:#ccc"/><path d="M265.82,267.66L260.14,274a2.38,2.38,0,0,1-3.35.19l-6.54-5.83a2.38,2.38,0,0,1-.19-3.35l5.68-6.36a2.38,2.38,0,0,1,3.35-.19l6.54,5.84a2.37,2.37,0,0,1,.2,3.35h0Z" style="fill:#ccc"/><rect x="240.41" y="271.78" width="13.27" height="13.5" rx="2.37" ry="2.37" transform="translate(-125.26 277.5) rotate(-48.27)" style="fill:#ccc"/><path d="M244,292.1l-5.68,6.36a2.38,2.38,0,0,1-3.35.19l-6.54-5.83a2.38,2.38,0,0,1-.19-3.35l5.68-6.36a2.38,2.38,0,0,1,3.35-.19l6.54,5.83A2.38,2.38,0,0,1,244,292.1Z" style="fill:#ccc"/><rect x="218.6" y="296.26" width="13.27" height="13.5" rx="2.37" ry="2.37" transform="translate(-150.82 269.41) rotate(-48.27)" style="fill:#ccc"/><rect x="207.69" y="308.48" width="13.27" height="13.5" rx="2.37" ry="2.37" transform="translate(-163.6 265.42) rotate(-48.28)" style="fill:#ccc"/><path d="M211.31,328.77l-5.68,6.37a2.37,2.37,0,0,1-3.35.19h0l-6.54-5.83a2.37,2.37,0,0,1-.19-3.35h0l5.68-6.37a2.38,2.38,0,0,1,3.35-.19l6.54,5.83A2.38,2.38,0,0,1,211.31,328.77Z" style="fill:#ccc"/><rect x="185.9" y="332.9" width="13.27" height="13.5" rx="2.37" ry="2.37" transform="translate(-189.1 257.26) rotate(-48.27)" style="fill:#ccc"/><path d="M189.51,353.22l-5.68,6.36a2.37,2.37,0,0,1-3.34.19L174,353.94a2.38,2.38,0,0,1-.19-3.35l5.68-6.37a2.38,2.38,0,0,1,3.35-.19l6.54,5.83A2.38,2.38,0,0,1,189.51,353.22Z" style="fill:#ccc"/><rect x="166.15" y="358.27" width="13.35" height="13.58" rx="2.38" ry="2.38" transform="translate(-214.56 250.74) rotate(-48.22)" style="fill:#ccc"/><path d="M167.71,377.66L162,384a2.38,2.38,0,0,1-3.35.19l-6.54-5.83a2.38,2.38,0,0,1-.19-3.35l5.68-6.37a2.38,2.38,0,0,1,3.35-.19l6.54,5.84a2.37,2.37,0,0,1,.24,3.34Z" style="fill:#ccc"/><path d="M156.78,389.91l-10.27,11.51a2.42,2.42,0,0,1-3.4.2l-6.48-5.78a2.42,2.42,0,0,1-.19-3.41l10.27-11.51a2.42,2.42,0,0,1,3.41-.19l6.48,5.78A2.42,2.42,0,0,1,156.78,389.91Z" style="fill:#ccc"/><path d="M265.08,244.69l-5.68,6.36a2.38,2.38,0,0,1-3.35.19l-6.54-5.83a2.38,2.38,0,0,1-.19-3.35L255,235.7a2.38,2.38,0,0,1,3.35-.19l6.54,5.83A2.38,2.38,0,0,1,265.08,244.69Z" style="fill:#ccc"/><rect x="239.66" y="248.82" width="13.27" height="13.51" rx="2.37" ry="2.37" transform="translate(-108.38 269.27) rotate(-48.27)" style="fill:#ccc"/><path d="M243.28,269.14l-5.68,6.37a2.38,2.38,0,0,1-3.35.19l-6.54-5.83a2.38,2.38,0,0,1-.19-3.35l5.68-6.37a2.38,2.38,0,0,1,3.35-.19l6.54,5.83A2.38,2.38,0,0,1,243.28,269.14Z" style="fill:#ccc"/><rect x="217.87" y="273.27" width="13.27" height="13.51" rx="2.37" ry="2.37" transform="translate(-133.91 261.18) rotate(-48.27)" style="fill:#ccc"/><path d="M221.47,293.58l-5.68,6.37a2.38,2.38,0,0,1-3.35.19l-6.54-5.83a2.38,2.38,0,0,1-.19-3.35l5.68-6.37a2.38,2.38,0,0,1,3.35-.19l6.54,5.83A2.38,2.38,0,0,1,221.47,293.58Z" style="fill:#ccc"/><rect x="196.05" y="297.75" width="13.27" height="13.51" rx="2.37" ry="2.37" transform="translate(-159.48 253.09) rotate(-48.27)" style="fill:#ccc"/><path d="M199.67,318L194,324.39a2.38,2.38,0,0,1-3.35.19l-6.54-5.83a2.38,2.38,0,0,1-.19-3.35L189.6,309a2.38,2.38,0,0,1,3.35-.19l6.54,5.83A2.38,2.38,0,0,1,199.67,318Z" style="fill:#ccc"/><rect x="176.24" y="322.9" width="13.35" height="13.59" rx="2.38" ry="2.38" transform="translate(-184.82 246.45) rotate(-48.22)" style="fill:#ccc"/><rect x="163.35" y="334.43" width="13.27" height="13.51" rx="2.37" ry="2.37" transform="translate(-197.79 240.94) rotate(-48.27)" style="fill:#ccc"/><rect x="152.44" y="346.65" width="13.27" height="13.51" rx="2.37" ry="2.37" transform="translate(-210.55 236.89) rotate(-48.27)" style="fill:#ccc"/><path d="M156,367l-10.27,11.51a2.42,2.42,0,0,1-3.41.19l-6.48-5.78a2.42,2.42,0,0,1-.19-3.41L146,358a2.42,2.42,0,0,1,3.41-.2l6.48,5.78A2.42,2.42,0,0,1,156,367Z" style="fill:#ccc"/><path d="M140,384.94L134.6,391a2.26,2.26,0,0,1-3.19.18l-6.71-6a2.27,2.27,0,0,1-.18-3.19l5.4-6.06a2.26,2.26,0,0,1,3.19-.18l6.71,6A2.26,2.26,0,0,1,140,384.94Z" style="fill:#ccc"/><path d="M206.63,272.86L150,336.38a2.37,2.37,0,0,1-3.33.19l-30.54-27.24a2.37,2.37,0,0,1-.19-3.33l56.65-63.52a2.37,2.37,0,0,1,3.33-.19l30.54,27.24A2.37,2.37,0,0,1,206.63,272.86Z" style="fill:#ccc"/><path d="M171.54,239.05l-28.18,31.59a0.49,0.49,0,0,1-.69,0L136.32,265a0.49,0.49,0,0,1,0-.69l28.18-31.59a0.49,0.49,0,0,1,.69,0l6.34,5.66A0.49,0.49,0,0,1,171.54,239.05Z" style="fill:#ccc"/><path d="M140.57,273.77L112.4,305.36a0.49,0.49,0,0,1-.69,0l-6.34-5.66a0.49,0.49,0,0,1,0-.69l28.17-31.59a0.49,0.49,0,0,1,.69,0l6.34,5.66A0.49,0.49,0,0,1,140.57,273.77Z" style="fill:#ccc"/><path d="M184.31,267.43a5.63,5.63,0,0,1,1.64-7.79h0a5.64,5.64,0,0,1,7.8,1.66l25.48,44.22a5.64,5.64,0,0,1-1.66,7.8h0a5.64,5.64,0,0,1-7.8-1.66Z" style="fill:#f2cea9"/><path d="M209.32,307.48l1.36,2.1c1.26,1.93,3.78,3.53,5.71,2.27l0.34-.22c1.93-1.25,1.51-4.21.25-6.14l-1.36-2.09Z" style="fill:#ffeede"/><path d="M188.93,271.23c-4.39-3.92-5.47-9.87-2.41-13.3l21.42-24c3.06-3.43,9.1-3,13.49.87l29.18,26c4.39,3.92,5.47,9.87,2.41,13.3l-21.42,24c-3.06,3.43-9.1,3-13.49-.88Z" style="fill:#f2cea9"/><rect x="174.23" y="230.88" width="37.27" height="20.56" transform="translate(-115.49 224.57) rotate(-48.27)" style="fill:#f2cea9"/><path d="M187.7,270.13a5.14,5.14,0,0,1-.42-7.26h0a5.14,5.14,0,0,1,7.26-.42h0l63.3,56.46a5.14,5.14,0,0,1,.42,7.26h0a5.14,5.14,0,0,1-7.26.42h0Z" style="fill:#f2cea9"/><path d="M250.41,324.34a3.45,3.45,0,0,1,0-4.85l0.29-.32a3.45,3.45,0,0,1,4.82-.58l1,0.86a3.45,3.45,0,0,1,0,4.86l-0.29.32a3.45,3.45,0,0,1-4.82.58Z" style="fill:#ffeede"/><path d="M196.25,260.54a5.14,5.14,0,0,1-.41-7.26h0a5.14,5.14,0,0,1,7.26-.42h0l63.29,56.46a5.14,5.14,0,0,1,.42,7.26h0a5.14,5.14,0,0,1-7.26.42h0Z" style="fill:#f2cea9"/><path d="M259,314.75a3.45,3.45,0,0,1,0-4.86l0.29-.32a3.45,3.45,0,0,1,4.82-.58l1,0.86a3.45,3.45,0,0,1,0,4.85l-0.29.32a3.45,3.45,0,0,1-4.82.58Z" style="fill:#ffeede"/><path d="M204.81,250.95a5.14,5.14,0,0,1-.42-7.26h0a5.14,5.14,0,0,1,7.26-.42h0l63.3,56.46a5.14,5.14,0,0,1,.41,7.26h0a5.14,5.14,0,0,1-7.26.42h0Z" style="fill:#f2cea9"/><path d="M267.52,305.16a3.45,3.45,0,0,1,0-4.86l0.29-.32a3.45,3.45,0,0,1,4.82-.58l1,0.86a3.45,3.45,0,0,1,0,4.86l-0.28.32a3.45,3.45,0,0,1-4.82.58Z" style="fill:#ffeede"/><path d="M213.36,241.36a5.14,5.14,0,0,1-.42-7.26h0a5.14,5.14,0,0,1,7.26-.42h0l63.3,56.46a5.14,5.14,0,0,1,.42,7.26h0a5.14,5.14,0,0,1-7.26.41h0Z" style="fill:#f2cea9"/><path d="M276.07,295.57a3.45,3.45,0,0,1,0-4.85l0.29-.32a3.45,3.45,0,0,1,4.82-.58l1,0.86a3.45,3.45,0,0,1,0,4.86l-0.29.32a3.45,3.45,0,0,1-4.82.58Z" style="fill:#ffeede"/><polygon points="34.19 133.75 90.69 111.85 199.52 209.68 163.48 249.66 34.19 133.75" style="fill:#9fbfd3"/><rect x="161.32" y="228.64" width="47.55" height="7.71" transform="translate(-111.62 215.88) rotate(-48.27)" style="fill:#fff"/><path d="M148.86,307.18a5.63,5.63,0,0,0-7.55,2.52h0a5.64,5.64,0,0,0,2.53,7.56l46.83,20.28a5.64,5.64,0,0,0,7.56-2.53h0a5.64,5.64,0,0,0-2.53-7.56Z" style="fill:#f2cea9"/><path d="M191.49,327.47l2.24,1.12c2.06,1,3.93,3.35,2.9,5.42l-0.18.36c-1,2.06-4,2-6.07,1l-2.24-1.12Z" style="fill:#ffeede"/><path d="M149.68,374c4.39,3.92,10.43,4.31,13.49.88l21.42-24c3.06-3.43,2-9.39-2.41-13.3l-29.18-26c-4.39-3.92-10.43-4.31-13.49-.87l-21.42,24c-3.06,3.43-2,9.39,2.41,13.3Z" style="fill:#f2cea9"/><rect x="104.94" y="308.56" width="37.27" height="20.56" transform="translate(-196.62 198.84) rotate(-48.27)" style="fill:#f2cea9"/><path d="M208.22,374.54a5.14,5.14,0,0,0,7.26-.42h0a5.14,5.14,0,0,0-.42-7.26h0l-63.3-56.46a5.14,5.14,0,0,0-7.26.41h0a5.14,5.14,0,0,0,.41,7.26h0Z" style="fill:#f2cea9"/><path d="M208.6,373.15a3.45,3.45,0,0,0,4.82-.58l0.29-.32a3.45,3.45,0,0,0,0-4.86l-1-.86a3.45,3.45,0,0,0-4.82.58l-0.29.32a3.45,3.45,0,0,0,0,4.86Z" style="fill:#ffeede"/><path d="M199.67,384.13a5.14,5.14,0,0,0,7.26-.42h0a5.14,5.14,0,0,0-.42-7.26h0L143.22,320a5.14,5.14,0,0,0-7.26.42h0a5.14,5.14,0,0,0,.41,7.26h0Z" style="fill:#f2cea9"/><path d="M200,382.74a3.45,3.45,0,0,0,4.82-.58l0.28-.32a3.45,3.45,0,0,0,0-4.86l-1-.86a3.45,3.45,0,0,0-4.82.58L199,377a3.45,3.45,0,0,0,0,4.86Z" style="fill:#ffeede"/><path d="M191.12,393.72a5.14,5.14,0,0,0,7.26-.42h0A5.14,5.14,0,0,0,198,386l0,0-63.3-56.46a5.14,5.14,0,0,0-7.26.41h0a5.14,5.14,0,0,0,.42,7.26h0Z" style="fill:#f2cea9"/><path d="M191.49,392.33a3.45,3.45,0,0,0,4.82-.58l0.29-.32a3.45,3.45,0,0,0,0-4.86l-1-.86a3.45,3.45,0,0,0-4.82.58l-0.29.32a3.45,3.45,0,0,0,0,4.86Z" style="fill:#ffeede"/><path d="M182.56,403.31a5.14,5.14,0,0,0,7.26-.41h0a5.14,5.14,0,0,0-.41-7.26h0l-63.3-56.46a5.14,5.14,0,0,0-7.26.41h0a5.14,5.14,0,0,0,.42,7.26h0Z" style="fill:#f2cea9"/><path d="M182.94,401.92a3.45,3.45,0,0,0,4.82-.58L188,401a3.45,3.45,0,0,0,0-4.86l-1-.86a3.45,3.45,0,0,0-4.82.58l-0.29.32a3.45,3.45,0,0,0,0,4.86Z" style="fill:#ffeede"/><polygon points="-28.89 220.38 24.31 195.44 129.61 288.92 93.68 329.2 -28.89 220.38" style="fill:#9fbfd3"/><rect x="91.18" y="307.28" width="47.55" height="7.71" transform="translate(-193.76 189.82) rotate(-48.27)" style="fill:#fff"/><rect x="496.75" y="168.55" width="131" height="176" rx="6.57" ry="6.57" style="fill:#454547"/><path d="M563.24,339a2,2,0,1,1,2,2A2,2,0,0,1,563.24,339Z" style="fill:#fff"/><path d="M559.86,181.73a4,4,0,1,1,4.07,4A4.07,4.07,0,0,1,559.86,181.73Z" style="fill:#ecf0f1"/><path d="M561.9,181.72a2,2,0,1,1,2,2A2,2,0,0,1,561.9,181.72Z" style="fill:#6d6e71"/><rect x="506.54" y="193.48" width="109.51" height="140.92" style="fill:#dfedf7"/><path d="M578.9,112.6a5.63,5.63,0,0,0-7.23-3.34h0a5.64,5.64,0,0,0-3.34,7.24l20.14,46.89a5.64,5.64,0,0,0,7.24,3.34h0a5.64,5.64,0,0,0,3.34-7.23Z" style="fill:#f2cea9"/><path d="M596,156.62l0.86,2.35c0.79,2.16.56,5.14-1.61,5.93l-0.38.14c-2.16.79-4.27-1.32-5.07-3.48l-0.86-2.35Z" style="fill:#ffeede"/><path d="M533.66,161.75c0.51,5.86,4.63,10.29,9.21,9.9l32.06-2.77c4.58-.4,7.89-5.47,7.38-11.33l-3.36-39c-0.51-5.86-4.63-10.29-9.21-9.9l-32.06,2.77c-4.58.4-7.88,5.47-7.38,11.33Z" style="fill:#f2cea9"/><rect x="534.75" y="92.55" width="37" height="21" style="fill:#f2cea9"/><path d="M575.86,202.34a5.14,5.14,0,0,0,5.56,4.68h0a5.14,5.14,0,0,0,4.68-5.56L578.8,117a5.14,5.14,0,0,0-5.56-4.68h0a5.14,5.14,0,0,0-4.68,5.56Z" style="fill:#f2cea9"/><path d="M577.08,201.59a3.45,3.45,0,0,0,3.9,2.89h0.43a3.44,3.44,0,0,0,3.35-3.51l-0.11-1.28a3.45,3.45,0,0,0-3.9-2.89h-0.43a3.45,3.45,0,0,0-3.35,3.51Z" style="fill:#ffeede"/><path d="M560.51,174a5.14,5.14,0,0,0,5.56,4.68h0a5.14,5.14,0,0,0,4.68-5.56L566,118.06a5.14,5.14,0,0,0-5.56-4.68h0a5.14,5.14,0,0,0-4.68,5.56Z" style="fill:#f2cea9"/><path d="M547.71,175.1a5.14,5.14,0,0,0,5.56,4.68h0a5.14,5.14,0,0,0,4.68-5.56l-4.75-55.05a5.14,5.14,0,0,0-5.56-4.68h0A5.14,5.14,0,0,0,543,120Z" style="fill:#f2cea9"/><path d="M534.91,176.21a5.14,5.14,0,0,0,5.56,4.68h0a5.14,5.14,0,0,0,4.68-5.56l-4.75-55.05a5.14,5.14,0,0,0-5.56-4.68h0a5.14,5.14,0,0,0-4.68,5.56Z" style="fill:#f2cea9"/><rect x="524.75" y="-250.45" width="54" height="338" style="fill:#4f7899"/><rect x="528.75" y="87.55" width="48" height="8" style="fill:#fff"/></g></svg>